<?xml version="1.0" encoding="UTF-8"?>
<!-- Generator: visioncortex VTracer 0.6.12 -->
<svg version="1.1" xmlns="http://www.w3.org/2000/svg" width="1280" height="720" viewBox="0 0 1280 720" preserveAspectRatio="xMidYMid slice">
<!-- ЧИСТЫЙ ЛИСТ — сгенерировано (Nano Banana) по промту §5 из
     filosofiya-intro-LOKACII.md и обведено tools/vectorize.py (trace).
     Горизонт — 0.60; персонаж на 0.839 стоит ближе к камере, чем стол, и
     слева от него. Лист развёрнут, пуст, края помнят скрутку — это та же
     записка, что в автомате. Ручной вектор — в истории git. -->
<path d="M0 0 C422.4 0 844.8 0 1280 0 C1280 237.6 1280 475.2 1280 720 C857.6 720 435.2 720 0 720 C0 482.4 0 244.8 0 0 Z " fill="#E4E4E4" transform="translate(0,0)"/>
<path d="M0 0 C4.996 2.832 7.895 7.061 9.688 12.438 C9.815 15.111 9.731 17.758 9.688 20.438 C10.966 20.376 12.245 20.314 13.562 20.25 C24.086 20.25 34.583 22.835 44.875 24.812 C67.526 29.123 90.353 32.303 113.208 35.294 C123.069 36.595 132.827 38.088 142.587 40.024 C145.707 40.638 148.832 41.227 151.957 41.819 C154.542 42.308 157.127 42.8 159.712 43.293 C163.352 43.987 166.993 44.679 170.634 45.371 C178.747 46.914 186.857 48.463 194.957 50.07 C196.147 50.305 197.337 50.54 198.563 50.782 C200.697 51.204 202.829 51.632 204.96 52.066 C217.911 54.622 217.911 54.622 221.938 51.938 C226.395 49.506 230.74 49.588 235.688 50.438 C239.074 52.007 241.986 53.855 244.688 56.438 C245.017 57.428 245.348 58.418 245.688 59.438 C246.298 59.502 246.909 59.567 247.538 59.634 C263.282 61.334 278.776 63.773 294.344 66.647 C302.192 68.084 310.056 69.435 317.918 70.799 C320.871 71.312 323.825 71.826 326.778 72.341 C336.72 74.072 346.667 75.776 356.621 77.438 C358.524 77.757 360.427 78.076 362.329 78.395 C365.917 78.997 369.505 79.59 373.094 80.179 C374.711 80.45 376.328 80.721 377.945 80.992 C378.675 81.11 379.405 81.227 380.158 81.348 C383.62 81.936 386.721 82.493 389.688 84.438 C391.884 88.83 390.918 94.627 390.875 99.438 C390.907 100.632 390.938 101.827 390.971 103.059 C390.837 112.099 390.837 112.099 387.454 116.038 C385.638 117.629 383.822 119.219 382.006 120.81 C377.684 125.709 377.899 131.525 377.625 137.812 C377.535 139.031 377.446 140.249 377.354 141.504 C377.076 145.478 376.884 149.458 376.688 153.438 C376.358 160.038 376.027 166.637 375.688 173.438 C389.878 173.438 404.068 173.438 418.688 173.438 C418.688 269.138 418.688 364.837 418.688 463.438 C-3.713 463.438 -426.113 463.438 -861.312 463.438 C-861.312 369.717 -861.312 275.997 -861.312 179.438 C-819.072 179.107 -776.832 178.778 -733.312 178.438 C-722.423 177.778 -711.533 177.118 -700.312 176.438 C-690.404 176.254 -680.513 176.136 -670.605 176.135 C-667.811 176.128 -665.018 176.118 -662.224 176.109 C-656.284 176.09 -650.344 176.078 -644.404 176.071 C-635.784 176.061 -627.164 176.039 -618.543 176.014 C-604.504 175.974 -590.464 175.941 -576.424 175.914 C-575.589 175.913 -574.755 175.911 -573.894 175.909 C-573.059 175.908 -572.223 175.906 -571.362 175.905 C-559.511 175.882 -547.661 175.857 -535.81 175.83 C-534.975 175.828 -534.141 175.827 -533.281 175.825 C-519.279 175.793 -505.277 175.757 -491.275 175.719 C-482.693 175.696 -474.111 175.677 -465.53 175.664 C-459.639 175.654 -453.748 175.641 -447.857 175.626 C-444.481 175.617 -441.105 175.611 -437.729 175.607 C-422.711 175.591 -407.72 175.369 -392.714 174.794 C-379.884 174.307 -367.063 174.311 -354.227 174.34 C-351.691 174.342 -349.156 174.343 -346.62 174.344 C-340.061 174.348 -333.502 174.358 -326.943 174.369 C-320.871 174.379 -314.798 174.383 -308.726 174.387 C-294.921 174.398 -281.117 174.415 -267.312 174.438 C-267.475 173.522 -267.638 172.607 -267.805 171.664 C-268.38 168.011 -268.425 164.549 -268.41 160.852 C-268.409 160.15 -268.407 159.448 -268.406 158.725 C-268.4 156.504 -268.388 154.283 -268.375 152.062 C-268.37 150.548 -268.365 149.034 -268.361 147.52 C-268.35 143.825 -268.333 140.132 -268.312 136.438 C-268.647 136.338 -268.647 136.338 -270.342 135.834 C-271.229 135.569 -272.117 135.304 -273.031 135.031 C-273.907 134.77 -274.783 134.509 -275.686 134.24 C-285.848 131.135 -285.848 131.135 -288.312 127.438 C-289.312 123.149 -289.814 118.809 -290.312 114.438 C-290.38 113.885 -290.38 113.885 -290.719 111.09 C-291.24 103.58 -291.24 103.58 -288.945 100.754 C-286.801 99.326 -284.71 98.383 -282.312 97.438 C-281.441 97.069 -280.57 96.7 -279.672 96.32 C-277.686 95.49 -275.693 94.676 -273.695 93.875 C-269.937 92.278 -266.323 90.482 -262.688 88.625 C-254.037 84.23 -245.215 80.292 -236.312 76.438 C-235.427 76.054 -234.542 75.67 -233.63 75.275 C-230.859 74.076 -228.086 72.881 -225.312 71.688 C-224.465 71.323 -223.617 70.958 -222.743 70.582 C-218.725 68.863 -214.699 67.192 -210.625 65.609 C-204.418 63.142 -198.403 60.269 -192.37 57.412 C-188.82 55.731 -185.265 54.059 -181.711 52.387 C-180.996 52.05 -180.282 51.713 -179.546 51.367 C-169.878 46.815 -160.169 42.355 -150.461 37.889 C-147.262 36.414 -144.066 34.933 -140.871 33.449 C-128.54 27.729 -116.17 22.108 -103.733 16.621 C-97.148 13.714 -90.608 10.727 -84.101 7.65 C-74.393 3.429 -64.612 5.928 -54.625 7.938 C-52.247 8.411 -49.868 8.88 -47.488 9.344 C-46.446 9.553 -45.403 9.763 -44.329 9.979 C-38.375 10.884 -35.036 10.742 -30.062 7.25 C-20.456 0.855 -11.623 -5.016 0 0 Z " fill="#E1E1E1" transform="translate(861.3125,256.5625)"/>
<path d="M0 0 C4.996 2.832 7.895 7.061 9.688 12.438 C9.815 15.111 9.731 17.758 9.688 20.438 C10.966 20.376 12.245 20.314 13.562 20.25 C24.086 20.25 34.583 22.835 44.875 24.812 C67.526 29.123 90.353 32.303 113.208 35.294 C123.069 36.595 132.827 38.088 142.587 40.024 C145.707 40.638 148.832 41.227 151.957 41.819 C154.542 42.308 157.127 42.8 159.712 43.293 C163.352 43.987 166.993 44.679 170.634 45.371 C178.747 46.914 186.857 48.463 194.957 50.07 C196.147 50.305 197.337 50.54 198.563 50.782 C200.697 51.204 202.829 51.632 204.96 52.066 C217.911 54.622 217.911 54.622 221.938 51.938 C226.395 49.506 230.74 49.588 235.688 50.438 C239.074 52.007 241.986 53.855 244.688 56.438 C245.017 57.428 245.348 58.418 245.688 59.438 C246.298 59.502 246.909 59.567 247.538 59.634 C263.282 61.334 278.776 63.773 294.344 66.647 C302.192 68.084 310.056 69.435 317.918 70.799 C320.871 71.312 323.825 71.826 326.778 72.341 C336.72 74.072 346.667 75.776 356.621 77.438 C358.524 77.757 360.427 78.076 362.329 78.395 C365.917 78.997 369.505 79.59 373.094 80.179 C374.711 80.45 376.328 80.721 377.945 80.992 C378.675 81.11 379.405 81.227 380.158 81.348 C383.62 81.936 386.721 82.493 389.688 84.438 C391.884 88.83 390.918 94.627 390.875 99.438 C390.907 100.632 390.938 101.827 390.971 103.059 C390.837 112.099 390.837 112.099 387.454 116.038 C385.638 117.629 383.822 119.219 382.006 120.81 C377.684 125.709 377.899 131.525 377.625 137.812 C377.535 139.031 377.446 140.249 377.354 141.504 C377.076 145.478 376.884 149.458 376.688 153.438 C376.358 160.038 376.027 166.637 375.688 173.438 C389.878 173.438 404.068 173.438 418.688 173.438 C418.688 174.428 418.688 175.418 418.688 176.438 C413.546 176.462 408.405 176.48 403.264 176.492 C401.517 176.497 399.77 176.504 398.024 176.513 C395.504 176.525 392.984 176.531 390.465 176.535 C389.692 176.54 388.918 176.545 388.122 176.551 C383.538 176.551 379.21 176.194 374.688 175.438 C374.705 176.035 374.705 176.035 374.791 179.06 C374.987 189.315 374.558 199.345 373.41 209.539 C373.28 210.693 373.15 211.847 373.017 213.037 C372.741 215.458 372.463 217.878 372.183 220.299 C370.156 237.913 368.446 255.312 368.523 273.055 C368.525 274.41 368.527 275.764 368.528 277.119 C368.547 283.567 368.658 290.003 368.881 296.448 C369.235 314.207 369.235 314.207 364.801 319.637 C361.727 322.723 358.312 325.043 354.688 327.438 C354.027 328.428 353.368 329.418 352.688 330.438 C334.696 329.446 334.696 329.446 329.688 324.438 C329.031 318.106 329.722 311.565 330.137 305.23 C330.612 297.561 330.917 289.89 331.188 282.211 C331.229 281.044 331.27 279.876 331.312 278.674 C331.482 273.817 331.649 268.96 331.812 264.103 C331.934 260.514 332.061 256.925 332.188 253.336 C332.205 252.79 332.205 252.79 332.295 250.028 C332.484 244.753 332.885 239.66 333.688 234.438 C333.882 231.784 334.052 229.14 334.188 226.484 C334.228 225.744 334.269 225.003 334.311 224.239 C334.439 221.889 334.564 219.538 334.688 217.188 C335.713 197.895 335.713 197.895 336.688 188.438 C336.027 188.438 335.368 188.438 334.688 188.438 C334.484 188.967 334.28 189.497 334.07 190.043 C332.086 193.478 329.385 195.988 326.562 198.75 C326.291 199.022 326.291 199.022 324.914 200.396 C321.961 203.318 318.937 206.114 315.789 208.824 C311.37 212.651 307.282 216.768 303.188 220.938 C298.489 225.722 293.744 230.346 288.662 234.722 C278.917 243.191 269.705 252.328 260.562 261.438 C259.877 262.119 259.191 262.8 258.485 263.501 C254.635 267.363 250.991 271.339 247.429 275.465 C244.534 278.745 241.466 281.843 238.375 284.938 C238.065 285.253 238.065 285.253 236.498 286.852 C235.904 287.447 235.311 288.043 234.699 288.656 C234.168 289.192 233.636 289.727 233.089 290.279 C231.688 291.438 231.688 291.438 229.688 291.438 C229.698 292.533 229.708 293.628 229.719 294.757 C229.757 298.977 229.779 303.197 229.797 307.417 C229.807 309.214 229.821 311.011 229.838 312.808 C229.944 323.822 229.593 334.695 228.711 345.676 C227.869 356.272 227.461 366.81 227.344 377.434 C227.336 378.149 227.328 378.864 227.319 379.602 C227.256 385.445 227.212 391.288 227.172 397.131 C227.141 401.557 227.101 405.983 227.052 410.409 C227.032 412.448 227.023 414.487 227.015 416.526 C227.002 417.757 226.988 418.988 226.975 420.256 C226.971 420.794 226.971 420.794 226.953 423.519 C226.485 428.67 224.746 431.775 221.062 435.312 C220.355 435.993 219.647 436.674 218.918 437.375 C210.228 445.41 210.228 445.41 205.688 448.438 C199.305 448.102 193.353 445.904 187.312 443.938 C186.303 443.617 185.294 443.296 184.254 442.965 C176.825 440.575 176.825 440.575 175.688 439.438 C175.587 436.513 175.551 433.611 175.558 430.686 C175.556 429.767 175.555 428.848 175.553 427.902 C175.548 424.843 175.551 421.785 175.555 418.727 C175.554 416.602 175.553 414.477 175.552 412.353 C175.55 407.885 175.552 403.418 175.557 398.951 C175.563 393.247 175.56 387.543 175.554 381.84 C175.55 377.444 175.551 373.048 175.554 368.652 C175.554 366.551 175.554 364.45 175.551 362.349 C175.534 343.098 175.534 343.098 176.449 334.883 C176.931 329.933 176.927 324.958 177.004 319.988 C177.025 318.85 177.045 317.711 177.067 316.538 C177.132 312.942 177.191 309.346 177.25 305.75 C177.293 303.295 177.337 300.84 177.381 298.385 C177.487 292.402 177.589 286.42 177.688 280.438 C176.814 280.301 175.94 280.165 175.041 280.024 C169.72 279.093 164.536 277.675 159.312 276.312 C158.116 276.001 156.919 275.69 155.686 275.369 C143.95 272.289 132.316 268.897 120.688 265.438 C105.09 260.809 89.458 256.439 73.688 252.438 C73.311 252.342 73.311 252.342 71.407 251.856 C65.449 250.338 59.489 248.839 53.492 247.48 C46.014 245.782 38.721 243.888 31.421 241.509 C22.429 238.634 13.25 236.417 4.105 234.086 C-5.752 231.568 -15.541 228.832 -25.312 226 C-26.315 225.713 -27.318 225.426 -28.352 225.131 C-35.12 223.168 -41.712 220.907 -48.312 218.438 C-48.312 223.717 -48.312 228.998 -48.312 234.438 C-49.303 234.768 -50.293 235.097 -51.312 235.438 C-51.56 236.056 -51.808 236.675 -52.062 237.312 C-53.977 240.568 -56.827 241.473 -60.312 242.438 C-67.489 243.394 -73.14 241.127 -79.312 237.438 C-81.641 233.944 -81.548 232.577 -81.508 228.457 C-81.501 227.294 -81.495 226.13 -81.488 224.932 C-81.472 223.717 -81.455 222.502 -81.438 221.25 C-81.428 220.023 -81.419 218.797 -81.41 217.533 C-81.387 214.501 -81.354 211.469 -81.312 208.438 C-81.623 208.389 -81.623 208.389 -83.191 208.141 C-89.398 207.093 -95.414 205.658 -101.483 203.992 C-108.371 202.117 -115.336 200.634 -122.312 199.125 C-133.674 196.629 -144.784 193.65 -155.875 190.133 C-162.426 188.059 -169.046 186.257 -175.691 184.509 C-179.463 183.513 -183.143 182.499 -186.816 181.176 C-195.196 178.187 -202.931 178.241 -211.773 178.336 C-212.425 178.34 -212.425 178.34 -215.719 178.358 C-218.917 178.377 -222.115 178.404 -225.312 178.438 C-225.204 191.965 -225.092 205.492 -224.973 219.019 C-224.918 225.301 -224.865 231.584 -224.815 237.867 C-224.767 243.942 -224.715 250.018 -224.66 256.093 C-224.639 258.399 -224.621 260.704 -224.603 263.009 C-224.515 274.685 -224.339 286.31 -223.53 297.96 C-223.206 303.143 -223.202 308.31 -223.25 313.5 C-223.255 314.473 -223.259 315.445 -223.264 316.447 C-223.275 318.777 -223.291 321.107 -223.312 323.438 C-224.073 323.715 -224.834 323.992 -225.617 324.277 C-228.049 325.324 -229.515 326.24 -231.438 328 C-235.714 331.626 -238.82 331.829 -244.312 331.438 C-247.199 330.546 -249.891 329.34 -252.625 328.062 C-253.34 327.745 -254.055 327.428 -254.791 327.102 C-257.687 325.791 -260.047 324.703 -262.312 322.438 C-262.615 319.679 -262.615 319.679 -262.691 316.172 C-262.708 315.53 -262.708 315.53 -262.795 312.281 C-262.822 310.917 -262.849 309.552 -262.875 308.188 C-262.936 305.557 -263 302.927 -263.066 300.297 C-263.09 299.126 -263.114 297.955 -263.139 296.749 C-263.25 293.117 -263.529 289.507 -263.81 285.885 C-264.361 278.395 -264.515 270.93 -264.594 263.422 C-264.612 262.031 -264.63 260.64 -264.65 259.249 C-264.718 254.158 -264.779 249.067 -264.839 243.976 C-264.89 239.644 -264.945 235.313 -265.004 230.981 C-265.031 228.977 -265.052 226.973 -265.072 224.969 C-265.143 219.754 -265.231 214.6 -265.826 209.415 C-266.547 203.058 -266.419 196.702 -266.375 190.312 C-266.37 189.07 -266.366 187.827 -266.361 186.547 C-266.35 183.51 -266.333 180.474 -266.312 177.438 C-280.244 177.524 -294.175 177.619 -308.106 177.725 C-314.581 177.774 -321.057 177.82 -327.533 177.859 C-333.835 177.898 -340.138 177.944 -346.44 177.996 C-348.79 178.013 -351.141 178.029 -353.491 178.041 C-366.401 178.109 -379.285 178.371 -392.184 178.905 C-424.304 180.232 -456.336 180.687 -488.483 180.574 C-494.473 180.556 -500.462 180.549 -506.452 180.542 C-518.313 180.528 -530.175 180.507 -542.036 180.479 C-542.386 180.478 -542.386 180.478 -544.158 180.473 C-549.126 180.462 -554.094 180.45 -559.062 180.438 C-564.759 180.424 -570.456 180.41 -576.153 180.396 C-576.856 180.395 -577.559 180.393 -578.283 180.391 C-590.134 180.364 -601.986 180.344 -613.837 180.331 C-620.422 180.323 -627.008 180.31 -633.594 180.287 C-661.755 180.19 -689.8 180.435 -717.919 182.074 C-765.642 184.855 -813.55 183.362 -861.312 182.438 C-861.312 181.447 -861.312 180.457 -861.312 179.438 C-860.683 179.434 -860.054 179.431 -859.406 179.427 C-843.922 179.345 -828.438 179.253 -812.955 179.15 C-805.466 179.1 -797.978 179.054 -790.49 179.016 C-783.944 178.982 -777.399 178.942 -770.854 178.895 C-767.405 178.87 -763.956 178.848 -760.507 178.834 C-747.88 178.778 -735.307 178.643 -722.711 177.712 C-695.891 175.745 -668.985 176.101 -642.108 176.069 C-634.253 176.059 -626.398 176.037 -618.543 176.014 C-604.504 175.974 -590.464 175.941 -576.424 175.914 C-575.589 175.913 -574.755 175.911 -573.894 175.909 C-573.059 175.908 -572.223 175.906 -571.362 175.905 C-559.511 175.882 -547.661 175.857 -535.81 175.83 C-534.975 175.828 -534.141 175.827 -533.281 175.825 C-519.279 175.793 -505.277 175.757 -491.275 175.719 C-482.693 175.696 -474.111 175.677 -465.53 175.664 C-459.639 175.654 -453.748 175.641 -447.857 175.626 C-444.481 175.617 -441.105 175.611 -437.729 175.607 C-422.711 175.591 -407.72 175.369 -392.714 174.794 C-379.884 174.307 -367.063 174.311 -354.227 174.34 C-351.691 174.342 -349.156 174.343 -346.62 174.344 C-340.061 174.348 -333.502 174.358 -326.943 174.369 C-320.871 174.379 -314.798 174.383 -308.726 174.387 C-294.921 174.398 -281.117 174.415 -267.312 174.438 C-267.475 173.522 -267.638 172.607 -267.805 171.664 C-268.38 168.011 -268.425 164.549 -268.41 160.852 C-268.409 160.15 -268.407 159.448 -268.406 158.725 C-268.4 156.504 -268.388 154.283 -268.375 152.062 C-268.37 150.548 -268.365 149.034 -268.361 147.52 C-268.35 143.825 -268.333 140.132 -268.312 136.438 C-268.647 136.338 -268.647 136.338 -270.342 135.834 C-271.229 135.569 -272.117 135.304 -273.031 135.031 C-273.907 134.77 -274.783 134.509 -275.686 134.24 C-285.848 131.135 -285.848 131.135 -288.312 127.438 C-289.312 123.149 -289.814 118.809 -290.312 114.438 C-290.38 113.885 -290.38 113.885 -290.719 111.09 C-291.24 103.58 -291.24 103.58 -288.945 100.754 C-286.801 99.326 -284.71 98.383 -282.312 97.438 C-281.441 97.069 -280.57 96.7 -279.672 96.32 C-277.686 95.49 -275.693 94.676 -273.695 93.875 C-269.937 92.278 -266.323 90.482 -262.688 88.625 C-254.037 84.23 -245.215 80.292 -236.312 76.438 C-235.427 76.054 -234.542 75.67 -233.63 75.275 C-230.859 74.076 -228.086 72.881 -225.312 71.688 C-224.465 71.323 -223.617 70.958 -222.743 70.582 C-218.725 68.863 -214.699 67.192 -210.625 65.609 C-204.418 63.142 -198.403 60.269 -192.37 57.412 C-188.82 55.731 -185.265 54.059 -181.711 52.387 C-180.996 52.05 -180.282 51.713 -179.546 51.367 C-169.878 46.815 -160.169 42.355 -150.461 37.889 C-147.262 36.414 -144.066 34.933 -140.871 33.449 C-128.54 27.729 -116.17 22.108 -103.733 16.621 C-97.148 13.714 -90.608 10.727 -84.101 7.65 C-74.393 3.429 -64.612 5.928 -54.625 7.938 C-52.247 8.411 -49.868 8.88 -47.488 9.344 C-46.446 9.553 -45.403 9.763 -44.329 9.979 C-38.375 10.884 -35.036 10.742 -30.062 7.25 C-20.456 0.855 -11.623 -5.016 0 0 Z " fill="#080808" transform="translate(861.3125,256.5625)"/>
<path d="M0 0 C3.415 0.707 6.836 1.092 10.301 1.477 C10.301 2.137 10.301 2.797 10.301 3.477 C8.662 4.675 8.662 4.675 6.332 6.023 C5.463 6.532 4.593 7.04 3.698 7.563 C3.22 7.838 3.22 7.838 0.801 9.227 C-0.182 9.799 -1.165 10.371 -2.178 10.96 C-4.275 12.179 -6.374 13.396 -8.474 14.609 C-11.636 16.44 -14.79 18.284 -17.941 20.133 C-26.491 25.146 -35.045 30.147 -43.699 34.977 C-58.225 43.085 -72.551 51.558 -86.824 60.102 C-87.635 60.586 -88.445 61.07 -89.28 61.57 C-90.767 62.463 -92.25 63.363 -93.729 64.269 C-95.491 65.349 -97.266 66.406 -99.043 67.461 C-104.272 71.429 -106.935 77.791 -108.25 84.133 C-108.615 90.725 -106.434 96.113 -102.699 101.477 C-96.99 107.713 -90.615 111.186 -82.418 113.23 C-81.246 113.528 -80.074 113.825 -78.867 114.131 C-77.657 114.431 -76.446 114.73 -75.199 115.039 C-72.792 115.643 -70.386 116.248 -67.98 116.855 C-66.919 117.119 -65.857 117.383 -64.764 117.655 C-62.671 118.216 -60.596 118.845 -58.541 119.531 C-55.022 120.702 -51.472 121.315 -47.824 121.914 C-46.307 122.174 -44.79 122.434 -43.273 122.695 C-42.51 122.826 -41.746 122.956 -40.958 123.09 C-31.525 124.705 -22.218 126.521 -12.952 128.934 C-8.633 130.042 -4.312 130.959 0.07 131.775 C19.892 135.479 39.189 141.379 58.343 147.612 C74.24 152.761 90.283 156.766 106.611 160.295 C113.553 161.812 120.348 163.541 127.132 165.646 C133.71 167.667 140.382 169.231 147.085 170.778 C150.772 171.629 154.397 172.505 158.023 173.594 C166.325 175.83 174.298 175.451 181.789 171.145 C186.237 168.191 190.5 165.039 194.696 161.739 C196.317 160.464 197.946 159.202 199.578 157.941 C213.246 147.339 226.514 136.244 239.604 124.94 C241.895 122.964 244.194 120.998 246.494 119.031 C249.433 116.517 252.367 113.997 255.301 111.477 C255.921 110.944 256.542 110.411 257.181 109.862 C264.734 103.372 272.199 96.808 279.512 90.047 C282.232 87.54 284.98 85.067 287.738 82.602 C291.025 79.645 294.259 76.688 297.301 73.477 C297.815 73.027 298.329 72.577 298.859 72.113 C304.52 66.643 304.693 60.034 305.301 52.477 C311.972 52.24 318.122 53.14 324.676 54.34 C325.217 54.436 325.217 54.436 327.957 54.924 C331.406 55.539 334.853 56.164 338.301 56.789 C340.586 57.198 342.871 57.606 345.156 58.014 C354.549 59.693 363.938 61.397 373.312 63.176 C378.899 64.231 384.485 65.174 390.113 65.977 C391.815 66.227 393.517 66.479 395.219 66.73 C397.73 67.099 400.241 67.468 402.752 67.835 C414.4 69.555 425.84 71.779 437.301 74.477 C433.811 77.97 430.312 81.454 426.809 84.934 C425.223 86.511 423.639 88.09 422.054 89.668 C420.973 90.744 419.891 91.82 418.808 92.894 C413.273 98.386 407.769 103.857 402.76 109.844 C400.599 112.262 398.139 114.272 395.668 116.363 C392.027 119.614 388.63 123.104 385.22 126.594 C382.483 129.375 379.698 132.025 376.727 134.555 C371.643 138.983 366.901 143.733 362.141 148.504 C361.182 149.461 360.224 150.419 359.266 151.376 C357.27 153.37 355.276 155.366 353.283 157.364 C350.749 159.903 348.211 162.438 345.672 164.972 C343.696 166.944 341.722 168.919 339.749 170.894 C338.367 172.278 336.982 173.66 335.597 175.041 C331.175 179.48 326.88 183.966 322.815 188.736 C319.102 193.003 315.055 196.866 310.727 200.5 C307.355 203.428 304.307 206.544 301.277 209.824 C300.401 210.758 299.524 211.692 298.621 212.654 C297.265 214.105 295.91 215.557 294.588 217.04 C287.202 225.287 287.202 225.287 282.721 225.734 C280.093 225.231 277.789 224.455 275.301 223.477 C273.807 223.067 272.31 222.672 270.809 222.293 C269.347 221.879 267.886 221.461 266.426 221.039 C260.469 219.332 254.493 217.758 248.478 216.269 C242.991 214.901 237.522 213.465 232.051 212.039 C223.194 209.734 214.331 207.463 205.438 205.301 C202.301 204.477 202.301 204.477 199.57 203.496 C196.748 202.616 194.16 202.085 191.254 201.609 C184.647 200.462 178.417 198.426 172.051 196.352 C157.804 191.815 143.434 188.033 128.932 184.4 C123.891 183.118 118.87 181.768 113.846 180.421 C108.821 179.082 103.783 177.8 98.738 176.539 C97.722 176.285 96.706 176.03 95.66 175.768 C88.768 174.055 81.857 172.456 74.926 170.914 C67.732 169.31 60.633 167.523 53.549 165.492 C46.507 163.49 39.408 161.733 32.301 159.977 C19.381 156.772 6.505 153.527 -6.15 149.386 C-17.066 145.834 -28.093 143.042 -39.262 140.414 C-42.722 139.594 -46.182 138.77 -49.641 137.941 C-50.483 137.74 -51.325 137.538 -52.193 137.33 C-58.673 135.763 -65.094 134.022 -71.51 132.209 C-77.418 130.542 -83.356 129.041 -89.324 127.602 C-104.747 123.801 -119.958 119.375 -135.055 114.441 C-153.992 108.257 -173.216 103.777 -192.647 99.468 C-202.805 97.211 -212.796 94.67 -222.699 91.477 C-222.699 90.817 -222.699 90.157 -222.699 89.477 C-201.864 78.81 -180.722 69.199 -159.116 60.191 C-153.626 57.895 -148.224 55.46 -142.852 52.898 C-140.243 51.722 -137.638 50.664 -134.973 49.629 C-129.601 47.501 -124.517 44.936 -119.387 42.289 C-111.071 38.057 -102.664 34.222 -94.058 30.622 C-87.89 28.029 -81.923 25.193 -76 22.082 C-73.324 20.781 -70.691 19.657 -67.926 18.574 C-62.742 16.536 -57.764 14.17 -52.762 11.727 C-44.056 7.521 -35.249 3.658 -26.312 -0.027 C-17.568 -3.648 -9.191 -2.016 0 0 Z " fill="#EDEEED" transform="translate(805.69921875,270.5234375)"/>
<path d="M0 0 C48.18 0 96.36 0 146 0 C147.166 37.323 147.166 37.323 147.13 53.671 C147.125 56.626 147.13 59.582 147.137 62.537 C147.136 64.484 147.135 66.432 147.133 68.379 C147.135 69.229 147.137 70.079 147.139 70.955 C147.121 75.839 146.889 80.66 146.509 85.53 C145.785 95.838 145.798 106.153 145.74 116.483 C145.718 120.214 145.691 123.946 145.663 127.677 C145.594 136.926 145.533 146.175 145.474 155.423 C145.423 163.28 145.368 171.136 145.308 178.993 C145.282 182.676 145.261 186.359 145.24 190.043 C145.224 192.279 145.207 194.515 145.189 196.751 C145.187 197.266 145.187 197.266 145.177 199.871 C145.168 200.802 145.16 201.732 145.151 202.691 C145.146 203.504 145.141 204.317 145.136 205.154 C145 207 145 207 144 208 C142.587 208.122 141.168 208.18 139.75 208.211 C138.845 208.237 137.94 208.263 137.008 208.291 C136.015 208.318 135.023 208.346 134 208.375 C125.624 208.674 117.375 209.307 109.062 210.375 C99.513 211.6 89.963 212.625 80.375 213.5 C79.708 213.561 79.041 213.622 78.353 213.685 C75.636 213.933 72.919 214.181 70.201 214.428 C65.32 214.874 60.441 215.341 55.562 215.82 C55.217 215.854 55.217 215.854 53.47 216.025 C50.189 216.348 46.907 216.672 43.626 216.998 C40.085 217.345 36.543 217.678 33 218 C31.91 218.102 30.82 218.203 29.696 218.308 C19.463 219.159 9.26 219.093 -1 219 C-1.033 207.063 -1.052 195.125 -1.062 183.188 C-1.063 182.254 -1.064 181.321 -1.065 180.36 C-1.088 152.235 -0.98 124.112 -0.777 95.988 C-0.772 95.304 -0.768 94.619 -0.762 93.914 C-0.537 62.609 -0.261 31.304 0 0 Z " fill="#FEFEFE" transform="translate(659,0)"/>
<path d="M0 0 C11.356 2.619 22.714 4.704 34.222 6.513 C41.397 7.648 48.481 8.991 55.57 10.583 C58.725 11.245 61.87 11.744 65.062 12.188 C70.17 12.939 75.165 13.948 80.188 15.125 C80.831 15.274 81.474 15.424 82.136 15.578 C86.607 16.652 90.999 17.918 95.406 19.23 C102.482 21.266 109.543 22.564 116.812 23.688 C118.772 24.002 120.731 24.317 122.691 24.633 C124.031 24.849 125.372 25.064 126.712 25.278 C133.86 26.419 140.993 27.641 148.125 28.875 C149.329 29.083 150.532 29.29 151.772 29.504 C160.447 31.008 169.107 32.576 177.75 34.25 C177.75 34.91 177.75 35.57 177.75 36.25 C176.238 37.59 176.238 37.59 174.062 39.188 C170.061 42.204 166.234 45.36 162.438 48.625 C158.312 52.157 154.125 55.525 149.75 58.75 C145.482 61.898 141.397 65.175 137.375 68.625 C132.412 72.882 127.348 76.972 122.188 80.986 C117.017 85.015 111.949 89.163 106.883 93.323 C101.335 97.847 95.628 102.134 89.801 106.293 C89.168 106.754 88.535 107.216 87.883 107.691 C87.325 108.09 86.767 108.489 86.192 108.901 C83.725 111.209 82.844 113.526 82.414 116.836 C82.328 123.001 82.67 126.532 86.75 131.25 C92.329 129.482 96.241 125.82 100.666 122.15 C101.262 121.666 101.858 121.182 102.473 120.684 C103.006 120.241 103.54 119.798 104.09 119.342 C105.952 118.117 107.574 117.672 109.75 117.25 C111.57 122.597 112.586 127.595 111.75 133.25 C110.062 136.563 110.062 136.563 107.75 139.25 C107.09 140.034 106.43 140.817 105.75 141.625 C96.016 146.898 83.122 141.643 73.168 138.913 C70.99 138.316 68.807 137.737 66.621 137.168 C60.671 135.611 54.766 133.955 48.875 132.188 C43.994 130.773 39.207 129.784 34.188 129 C11.401 125.335 -10.932 117.386 -32.882 110.414 C-51.096 104.631 -69.689 100.401 -88.542 97.288 C-92.863 96.555 -97.031 95.556 -101.25 94.375 C-107.863 92.526 -114.509 91.172 -121.25 89.875 C-129.777 88.207 -138.256 86.415 -146.688 84.312 C-147.145 84.204 -147.145 84.204 -149.463 83.657 C-158.986 81.206 -167.766 76.668 -173.25 68.25 C-175.345 63.774 -176.148 59.143 -175.25 54.25 C-173.085 49.329 -169.992 44.897 -165.25 42.25 C-160.276 41.618 -158.26 41.718 -153.812 44.062 C-151.25 46.25 -151.25 46.25 -150.25 49.25 C-155.2 52.22 -160.15 55.19 -165.25 58.25 C-164.663 68.09 -164.663 68.09 -160.25 72.25 C-156.744 74.789 -153.478 74.526 -149.25 74.25 C-146.622 73.251 -144.335 72.244 -141.875 70.938 C-141.529 70.759 -141.529 70.759 -139.78 69.856 C-133.202 66.379 -127.012 62.359 -120.816 58.25 C-115.777 54.913 -110.645 51.734 -105.5 48.562 C-104.6 48.007 -103.699 47.451 -102.771 46.878 C-99.082 44.604 -95.39 42.335 -91.695 40.07 C-82.992 34.733 -74.361 29.285 -65.735 23.823 C-61.679 21.255 -57.621 18.69 -53.562 16.125 C-52.781 15.631 -51.999 15.137 -51.194 14.628 C-45.31 10.912 -39.412 7.218 -33.499 3.546 C-32.895 3.17 -32.291 2.794 -31.668 2.406 C-31.376 2.228 -31.376 2.228 -29.9 1.328 C-28.25 0.25 -28.25 0.25 -25.426 -2.094 C-17.898 -6.02 -7.829 -1.86 0 0 Z " fill="#FDFDFD" transform="translate(877.25,297.75)"/>
<path d="M0 0 C1.65 0 3.3 0 5 0 C5.031 20 5.051 40 5.062 60 C5.063 60.741 5.063 61.482 5.064 62.246 C5.087 102.562 5.013 142.873 4.5 183.188 C4.488 184.128 4.476 185.068 4.464 186.036 C4.323 197.024 4.17 208.012 4 219 C8.556 218.745 13.112 218.486 17.668 218.224 C19.21 218.136 20.753 218.049 22.295 217.963 C36.609 217.162 50.839 215.857 65.1 214.391 C69.122 213.988 73.146 213.611 77.172 213.246 C77.851 213.184 78.529 213.123 79.229 213.059 C80.597 212.935 81.965 212.81 83.333 212.686 C94.49 211.67 105.622 210.561 116.718 209.002 C123.77 208.076 130.811 207.748 137.912 207.459 C138.979 207.415 140.046 207.37 141.146 207.324 C143.764 207.214 146.382 207.106 149 207 C149.004 206.431 149.008 205.863 149.013 205.277 C149.117 191.377 149.225 177.477 149.339 163.577 C149.394 156.855 149.448 150.133 149.497 143.41 C149.545 136.913 149.598 130.417 149.653 123.92 C149.673 121.451 149.692 118.982 149.709 116.513 C149.789 105.167 149.904 93.894 150.782 82.579 C151.235 75.146 151.121 67.698 151.098 60.254 C151.096 58.504 151.094 56.754 151.093 55.005 C151.09 50.453 151.08 45.901 151.069 41.349 C151.058 36.682 151.054 32.016 151.049 27.35 C151.038 18.233 151.021 9.117 151 0 C159.91 0 168.82 0 178 0 C178.175 20.098 178.33 40.194 177.555 60.281 C177.511 61.42 177.467 62.56 177.422 63.733 C177.329 66.116 177.236 68.498 177.143 70.88 C175.874 103.565 175.831 136.231 175.875 168.938 C175.877 170.202 175.878 171.467 175.88 172.77 C175.903 188.513 175.944 204.257 176 220 C171.81 221.77 168.161 222.484 163.621 222.965 C162.905 223.043 162.189 223.121 161.452 223.201 C159.114 223.453 156.776 223.696 154.438 223.938 C152.806 224.111 151.175 224.286 149.543 224.46 C146.251 224.813 142.958 225.161 139.665 225.506 C135.544 225.94 131.426 226.394 127.309 226.855 C114.989 228.229 102.677 229.393 90.314 230.301 C77.597 231.236 64.906 232.376 52.25 233.938 C44.279 234.915 36.288 235.675 28.293 236.418 C26.823 236.554 25.354 236.692 23.886 236.832 C21.79 237.031 19.694 237.223 17.598 237.414 C16.376 237.527 15.154 237.64 13.895 237.756 C9.256 238.047 4.646 238.05 0 238 C-0.578 211.523 -1.101 185.047 -1.125 158.562 C-1.127 157.622 -1.13 156.682 -1.133 155.713 C-1.138 153.018 -1.137 150.324 -1.133 147.629 C-1.135 146.871 -1.137 146.114 -1.139 145.334 C-1.12 140.752 -0.867 136.238 -0.498 131.671 C0.315 120.011 0.127 108.324 0.101 96.642 C0.095 93.235 0.095 89.827 0.093 86.42 C0.09 79.993 0.082 73.565 0.072 67.138 C0.061 59.81 0.055 52.482 0.05 45.154 C0.04 30.103 0.022 15.051 0 0 Z " fill="#1D1D1D" transform="translate(654,0)"/>
<path d="M0 0 C4.969 0.593 9.541 1.673 14.312 3.188 C21.702 5.443 29.156 7.28 36.688 9 C37.809 9.257 38.931 9.514 40.087 9.779 C45.17 10.935 50.256 12.063 55.363 13.105 C68.41 15.823 80.928 19.718 93.535 23.991 C101.996 26.839 110.441 29.156 119.15 31.117 C123.968 32.222 128.699 33.538 133.438 34.938 C135.241 35.459 137.044 35.979 138.848 36.5 C141.295 37.211 143.742 37.924 146.187 38.645 C157.075 41.846 168.072 44.383 179.152 46.821 C190.11 49.243 200.861 52.146 211.605 55.391 C216.397 56.838 221.213 58.138 226.062 59.375 C233.796 61.354 241.448 63.583 249.103 65.842 C261.164 69.396 273.25 72.627 285.5 75.473 C293.004 77.217 300.469 79.113 307.938 81 C316.577 83.182 325.222 85.302 333.921 87.238 C347.324 90.221 360.449 93.926 373.605 97.824 C380.962 100.003 388.35 102.043 395.757 104.039 C400.644 105.356 405.515 106.712 410.375 108.125 C421.535 111.336 432.838 114.005 444.154 116.605 C448.48 117.608 452.733 118.772 457 120 C460.662 120.976 464.331 121.924 468 122.875 C470.06 123.411 472.12 123.948 474.18 124.484 C479.764 125.939 479.764 125.939 482.321 126.604 C505.051 132.526 505.051 132.526 510 135 C510 140.94 510 146.88 510 153 C490.213 150.032 470.487 144.459 451.625 137.812 C446.916 136.185 442.177 135.1 437.312 134.062 C427.509 131.97 418.007 129.168 408.436 126.207 C405.645 125.344 402.854 124.483 400.062 123.625 C399.104 123.33 398.145 123.035 397.157 122.732 C388.652 120.144 380.086 117.814 371.483 115.573 C365.764 114.07 360.115 112.423 354.484 110.621 C344.983 107.599 335.35 105.136 325.688 102.688 C324.761 102.451 323.834 102.215 322.879 101.971 C308.496 98.305 294.073 94.847 279.581 91.637 C266.572 88.749 253.759 85.246 240.938 81.625 C228.693 78.171 228.693 78.171 222.59 76.566 C211.739 73.706 201.044 70.473 190.375 67 C189.7 66.78 189.025 66.561 188.33 66.335 C185.672 65.47 183.014 64.605 180.356 63.739 C152.453 54.661 123.903 47.612 95.422 40.6 C93.154 40.038 90.889 39.467 88.625 38.891 C80.846 36.913 73.047 35.081 65.2 33.394 C61.975 32.695 58.827 31.948 55.66 31.008 C52.728 30.2 49.994 29.66 47.004 29.188 C39.737 27.917 32.88 25.426 25.938 23 C10.585 17.65 10.585 17.65 2.76 16.359 C1 16 1 16 0 15 C-0.073 12.47 -0.092 9.967 -0.062 7.438 C-0.058 6.727 -0.053 6.016 -0.049 5.283 C-0.037 3.522 -0.019 1.761 0 0 Z " fill="#9C9C9C" transform="translate(578,367)"/>
<path d="M0 0 C3.577 2.386 7.053 5.105 9 9 C9.716 14.89 10.101 20.345 6.5 25.312 C3.017 29.267 -0.968 32.624 -5 36 C-6.59 37.41 -8.173 38.827 -9.75 40.25 C-10.592 41.008 -11.434 41.766 -12.301 42.547 C-14.687 44.716 -17.055 46.903 -19.419 49.095 C-24.56 53.852 -29.826 58.36 -35.285 62.754 C-38.107 65.088 -40.806 67.52 -43.5 70 C-47.916 74.06 -52.462 77.893 -57.129 81.66 C-60.23 84.187 -63.272 86.776 -66.312 89.375 C-71.878 94.114 -77.58 98.652 -83.348 103.141 C-85.978 105.191 -88.586 107.267 -91.184 109.359 C-91.873 109.914 -92.562 110.469 -93.272 111.041 C-94.613 112.123 -95.953 113.207 -97.291 114.293 C-101.891 118 -101.891 118 -103 118 C-103.049 117.493 -103.049 117.493 -103.297 114.93 C-103.447 113.578 -103.598 112.226 -103.75 110.875 C-103.812 110.21 -103.874 109.545 -103.938 108.859 C-104.649 102.808 -107.003 99.055 -111.188 94.75 C-114.949 92.41 -118.669 91.717 -123 91 C-123 90.34 -123 89.68 -123 89 C-121.461 87.933 -119.865 86.949 -118.25 86 C-112.776 82.619 -107.983 78.774 -103.098 74.602 C-100.004 71.973 -96.8 69.511 -93.562 67.062 C-88.52 63.237 -83.678 59.227 -78.875 55.106 C-75.172 51.945 -71.381 48.939 -67.5 46 C-62.503 42.214 -57.699 38.253 -52.941 34.171 C-49.084 30.877 -45.136 27.728 -41.125 24.625 C-35.307 20.118 -29.746 15.362 -24.213 10.511 C-9.142 -2.655 -9.142 -2.655 0 0 Z " fill="#EEEEEE" transform="translate(1097,313)"/>
<path d="M0 0 C4.512 1.99 6.731 3.691 8.902 8.262 C9.852 13.363 10.388 18.863 7.566 23.418 C2.818 27.826 -3.184 30.58 -8.898 33.531 C-11.665 35.028 -14.127 36.597 -16.66 38.449 C-21.543 41.994 -26.664 45.059 -31.848 48.137 C-37.662 51.589 -43.432 55.07 -49.098 58.762 C-54.662 62.386 -60.325 65.809 -66.035 69.199 C-72.687 73.152 -79.181 77.253 -85.577 81.606 C-90.918 85.212 -96.435 88.474 -102.011 91.701 C-107.147 94.678 -112.144 97.802 -117.094 101.082 C-119.098 102.262 -119.098 102.262 -121.098 102.262 C-121.099 101.881 -121.099 101.881 -121.105 99.953 C-121.39 92.355 -122.516 86.699 -128.098 81.262 C-131.305 79.226 -134.566 77.651 -138.098 76.262 C-133.962 71.624 -129.384 68.876 -123.973 65.887 C-123.516 65.63 -123.516 65.63 -121.206 64.331 C-118.175 62.631 -115.137 60.945 -112.098 59.262 C-111.04 58.675 -109.983 58.089 -108.894 57.485 C-104.424 55.006 -99.954 52.527 -95.482 50.05 C-75.257 38.825 -55.342 27.143 -35.715 14.906 C-30.522 11.67 -25.318 8.454 -20.098 5.262 C-19.476 4.88 -18.855 4.499 -18.215 4.105 C-12.073 0.372 -7.259 -2.555 0 0 Z " fill="#EDEDED" transform="translate(857.09765625,259.73828125)"/>
<path d="M0 0 C5.94 0 11.88 0 18 0 C18.023 10.78 18.041 21.559 18.052 32.339 C18.057 37.345 18.064 42.351 18.075 47.357 C18.086 52.194 18.092 57.031 18.095 61.868 C18.097 63.707 18.1 65.547 18.106 67.386 C18.113 69.975 18.114 72.565 18.114 75.154 C18.117 75.903 18.121 76.653 18.124 77.425 C18.117 81.253 17.926 84.983 17.5 88.788 C16.873 94.611 16.867 100.39 16.886 106.243 C16.886 107.424 16.886 108.606 16.886 109.823 C16.887 113.697 16.894 117.571 16.902 121.445 C16.905 124.144 16.906 126.842 16.907 129.541 C16.91 135.898 16.918 142.255 16.928 148.611 C16.939 155.855 16.945 163.098 16.95 170.341 C16.96 185.227 16.978 200.114 17 215 C12.463 214.207 8.749 212.55 4.688 210.438 C4.042 210.108 3.397 209.779 2.732 209.439 C1.152 208.632 -0.424 207.817 -2 207 C-2.062 182.527 -1.935 158.061 -1.628 133.591 C-1.572 129.142 -1.522 124.693 -1.473 120.245 C-1.434 116.728 -1.391 113.211 -1.347 109.694 C-1.327 108.054 -1.308 106.413 -1.291 104.773 C-1.201 96.481 -0.995 88.222 -0.486 79.945 C0.047 71.193 0.129 62.477 0.098 53.711 C0.096 52.145 0.094 50.579 0.093 49.013 C0.09 44.959 0.08 40.905 0.069 36.851 C0.058 32.687 0.054 28.523 0.049 24.359 C0.038 16.24 0.021 8.12 0 0 Z " fill="#FBFBFB" transform="translate(809,0)"/>
<path d="M0 0 C3.667 1 3.667 1 22 6 C22.146 17.201 21.756 28.341 21.2 39.527 C21.062 42.325 20.93 45.125 20.799 47.924 C20.711 49.737 20.623 51.55 20.535 53.363 C20.516 53.773 20.516 53.773 20.418 55.848 C20.218 59.823 19.933 63.765 19.494 67.721 C19.003 72.562 18.83 77.35 18.795 82.213 C18.79 82.643 18.79 82.643 18.765 84.819 C18.733 87.621 18.708 90.424 18.684 93.227 C18.663 95.185 18.642 97.144 18.621 99.103 C18.566 104.228 18.516 109.354 18.468 114.48 C18.417 119.722 18.362 124.965 18.307 130.207 C18.199 140.471 18.098 150.736 18 161 C13.588 160.301 9.456 159.327 5.188 158 C4.047 157.649 2.906 157.299 1.73 156.938 C-1 156 -1 156 -2 155 C-2.101 152.335 -2.136 149.696 -2.129 147.031 C-2.131 146.195 -2.133 145.359 -2.135 144.497 C-2.139 141.713 -2.136 138.929 -2.133 136.145 C-2.133 134.207 -2.134 132.269 -2.136 130.33 C-2.137 126.252 -2.135 122.174 -2.13 118.096 C-2.125 112.904 -2.128 107.712 -2.134 102.519 C-2.138 98.507 -2.136 94.494 -2.134 90.481 C-2.133 88.57 -2.134 86.658 -2.136 84.747 C-2.145 75.19 -2.022 65.73 -1.238 56.198 C-0.837 50.817 -0.767 45.433 -0.684 40.039 C-0.663 38.882 -0.642 37.726 -0.621 36.534 C-0.556 32.898 -0.497 29.261 -0.438 25.625 C-0.394 23.135 -0.351 20.646 -0.307 18.156 C-0.2 12.104 -0.099 6.052 0 0 Z " fill="#9B9B9B" transform="translate(1045,537)"/>
<path d="M0 0 C8.931 0.508 17.535 1.683 26.312 3.375 C36.312 5.237 46.283 6.809 56.394 7.923 C62.514 8.616 68.557 9.595 74.615 10.69 C81.442 11.918 88.283 13.044 95.129 14.156 C96.297 14.346 97.466 14.536 98.67 14.732 C103.522 15.521 108.375 16.308 113.228 17.093 C128.262 19.528 143.267 21.999 158.188 25.062 C161.738 25.785 165.289 26.347 168.875 26.863 C176.256 27.987 183.522 29.524 190.812 31.125 C192.089 31.402 193.366 31.679 194.682 31.965 C197.789 32.64 200.895 33.318 204 34 C201.173 37.453 198.392 40.825 195.125 43.875 C194.509 44.471 193.893 45.066 193.258 45.68 C187.213 49.215 178.942 46.125 172.5 44.75 C163.936 42.979 155.368 41.299 146.75 39.812 C145.86 39.658 144.97 39.504 144.053 39.345 C140.349 38.711 136.647 38.093 132.927 37.557 C124.864 36.391 117.036 34.684 109.125 32.75 C94.624 29.278 80.053 26.381 65.391 23.667 C62.789 23.155 60.215 22.598 57.631 22.006 C53.208 21.013 48.776 20.298 44.293 19.637 C33.572 17.997 22.949 15.923 12.312 13.812 C10.424 13.44 8.535 13.069 6.646 12.697 C2.097 11.802 -2.452 10.902 -7 10 C-7 9.01 -7 8.02 -7 7 C-5.367 5.625 -3.698 4.294 -2 3 C-1.34 2.01 -0.68 1.02 0 0 Z " fill="#F6F6F6" transform="translate(870,282)"/>
<path d="M0 0 C2.227 13.48 2.227 13.48 -1.359 19.148 C-4.923 23.338 -9.044 26.904 -13.231 30.454 C-15.352 32.308 -17.156 34.321 -18.938 36.5 C-21.703 39.782 -24.785 42.468 -28.051 45.242 C-29.934 46.94 -31.55 48.692 -33.188 50.625 C-40.16 58.828 -47.986 66.416 -56.172 73.398 C-60.841 77.489 -65.1 81.942 -69.144 86.644 C-72.884 90.925 -76.823 94.964 -80.847 98.977 C-81.598 99.729 -82.348 100.481 -83.121 101.256 C-85.576 103.715 -88.034 106.17 -90.492 108.625 C-92.206 110.34 -93.92 112.055 -95.634 113.77 C-99.211 117.349 -102.791 120.926 -106.371 124.501 C-110.971 129.096 -115.567 133.695 -120.162 138.296 C-123.693 141.83 -127.226 145.362 -130.76 148.893 C-132.457 150.59 -134.153 152.287 -135.848 153.984 C-138.206 156.345 -140.567 158.702 -142.929 161.059 C-143.635 161.766 -144.34 162.473 -145.067 163.202 C-145.386 163.521 -145.386 163.521 -147.004 165.131 C-147.561 165.688 -148.119 166.245 -148.694 166.82 C-150 168 -150 168 -151 168 C-152.528 151.468 -152.528 151.468 -148.949 145.688 C-146.417 143.226 -143.822 141.118 -141 139 C-139.307 137.36 -137.641 135.692 -136 134 C-125.389 123.246 -125.389 123.246 -121.125 119.625 C-117.395 116.434 -113.913 113.026 -110.438 109.562 C-109.907 109.037 -109.377 108.511 -108.831 107.969 C-106.044 105.173 -103.383 102.313 -100.814 99.314 C-96.958 94.892 -92.876 90.732 -88.723 86.59 C-87.952 85.819 -87.182 85.048 -86.389 84.253 C-84.771 82.634 -83.151 81.017 -81.531 79.4 C-79.069 76.944 -76.614 74.483 -74.158 72.021 C-72.576 70.44 -70.993 68.858 -69.41 67.277 C-68.686 66.551 -67.962 65.825 -67.216 65.077 C-63.203 61.082 -59.103 57.258 -54.796 53.582 C-52.951 51.957 -51.221 50.256 -49.5 48.5 C-47.184 46.143 -44.81 43.935 -42.297 41.789 C-37.932 37.993 -33.828 33.976 -29.75 29.875 C-29.403 29.53 -29.403 29.53 -27.648 27.785 C-24.2 24.33 -21.02 20.843 -18 17 C-16.554 15.811 -15.107 14.623 -13.645 13.453 C-11.041 11.153 -8.863 8.508 -6.609 5.871 C-1.559 0 -1.559 0 0 0 Z " fill="#9D9D9D" transform="translate(1245,351)"/>
<path d="M0 0 C0.33 0.66 0.66 1.32 1 2 C1.928 1.959 2.856 1.918 3.812 1.875 C7 2 7 2 10 4 C8.936 13.221 -1.277 19.136 -8.055 24.555 C-11.282 27.234 -14.326 30.06 -17.375 32.938 C-22.05 37.33 -26.856 41.302 -31.993 45.149 C-36.901 48.852 -41.513 52.848 -46.132 56.902 C-51.545 61.64 -57.084 66.209 -62.654 70.76 C-67.429 74.673 -72.11 78.678 -76.75 82.75 C-82.312 87.622 -88.016 92.206 -93.938 96.633 C-97.872 99.674 -101.535 102.993 -105.172 106.383 C-112.242 110.426 -120.977 107.384 -128.438 105.625 C-129.592 105.361 -130.747 105.097 -131.937 104.825 C-143.399 102.186 -154.834 99.427 -166.269 96.677 C-177.077 94.078 -187.896 91.555 -198.75 89.156 C-199.824 88.918 -200.897 88.68 -202.004 88.435 C-207.2 87.285 -212.398 86.145 -217.6 85.019 C-228.731 82.582 -239.656 79.746 -250.575 76.486 C-258.355 74.165 -266.151 72.141 -274.062 70.312 C-276.538 69.728 -279.013 69.142 -281.488 68.555 C-282.627 68.285 -283.766 68.015 -284.94 67.737 C-289.689 66.593 -294.394 65.309 -299.105 64.02 C-304.395 62.605 -309.734 61.385 -315.062 60.125 C-326.784 57.349 -338.403 54.256 -350 51 C-349.67 50.01 -349.34 49.02 -349 48 C-341.536 48.746 -334.317 50.38 -327 52 C-319.999 53.527 -312.993 55.008 -305.959 56.381 C-283.979 60.689 -262.729 66.503 -241.438 73.427 C-228.247 77.711 -215.181 81.434 -201.633 84.391 C-199.276 84.906 -196.919 85.421 -194.562 85.938 C-193.385 86.195 -192.207 86.452 -190.993 86.717 C-183.956 88.277 -177.053 90.033 -170.171 92.169 C-163.592 94.19 -156.919 95.755 -150.215 97.301 C-146.529 98.153 -142.904 99.029 -139.277 100.117 C-130.976 102.353 -123.003 101.974 -115.512 97.668 C-111.064 94.714 -106.801 91.563 -102.605 88.262 C-100.984 86.988 -99.354 85.725 -97.723 84.465 C-84.055 73.863 -70.787 62.768 -57.697 51.463 C-55.406 49.488 -53.106 47.521 -50.807 45.555 C-47.868 43.04 -44.934 40.521 -42 38 C-41.379 37.467 -40.759 36.935 -40.12 36.386 C-32.566 29.895 -25.102 23.331 -17.789 16.57 C-15.069 14.063 -12.321 11.59 -9.562 9.125 C-6.271 6.173 -3.075 3.177 0 0 Z " fill="#AAAAA9" transform="translate(1103,344)"/>
<path d="M0 0 C5.787 0.438 9.759 1.291 15 4 C15.009 4.67 15.019 5.339 15.028 6.029 C15.257 22.329 15.491 38.63 15.73 54.93 C15.846 62.813 15.96 70.695 16.07 78.578 C16.166 85.45 16.265 92.321 16.368 99.192 C16.422 102.83 16.475 106.467 16.524 110.105 C16.579 114.168 16.64 118.231 16.703 122.293 C16.718 123.497 16.733 124.7 16.749 125.94 C16.758 126.495 16.758 126.495 16.804 129.305 C16.818 130.266 16.831 131.226 16.846 132.216 C17.011 135.202 17.485 138.056 18 141 C18.077 143.017 18.108 145.036 18.098 147.055 C18.094 148.163 18.091 149.272 18.088 150.414 C18.08 151.556 18.071 152.698 18.062 153.875 C18.058 155.04 18.053 156.206 18.049 157.406 C18.037 160.271 18.021 163.135 18 166 C13.3 164.778 9.34 163.244 5 161 C4.975 160.108 4.95 159.216 4.924 158.297 C4.828 154.948 4.729 151.599 4.628 148.25 C4.585 146.808 4.543 145.366 4.503 143.924 C4.444 141.836 4.381 139.748 4.316 137.66 C4.28 136.409 4.243 135.157 4.205 133.867 C4.061 131.154 3.838 128.573 3.496 125.888 C2.767 119.649 2.805 113.399 2.754 107.125 C2.739 105.769 2.723 104.413 2.707 103.057 C2.674 100.188 2.642 97.32 2.611 94.451 C2.367 71.765 1.983 49.114 0.66 26.461 C0.574 24.979 0.488 23.497 0.402 22.016 C0.362 21.332 0.323 20.648 0.281 19.944 C-0.083 13.292 -0.089 6.66 0 0 Z " fill="#9D9D9D" transform="translate(600,415)"/>
<path d="M0 0 C2.438 1.562 2.438 1.562 4 4 C4.774 9.418 4.774 9.418 4 12 C-4.505 21.496 -15.643 28.754 -25.883 36.242 C-31.061 40.033 -36.188 43.888 -41.312 47.75 C-48.162 52.901 -55.033 58.011 -62.055 62.926 C-63.811 64.163 -65.552 65.423 -67.258 66.73 C-72.057 70.28 -77.109 72.363 -82.688 74.375 C-83.413 74.638 -84.139 74.902 -84.886 75.173 C-89.059 76.597 -92.53 77.296 -97 77 C-94.282 64.393 -84.05 54.199 -74 47 C-72.622 45.988 -71.244 44.975 -69.867 43.961 C-66.048 41.168 -62.202 38.416 -58.347 35.673 C-54.551 32.967 -50.777 30.232 -47 27.5 C-45.507 26.422 -44.013 25.344 -42.52 24.266 C-38.674 21.488 -34.833 18.704 -30.993 15.918 C-28.737 14.286 -26.475 12.662 -24.211 11.039 C-21.522 9.11 -18.863 7.149 -16.227 5.148 C-15.089 4.307 -13.951 3.466 -12.812 2.625 C-11.85 1.895 -10.887 1.166 -9.895 0.414 C-6.142 -1.419 -3.995 -1.001 0 0 Z " fill="#141414" transform="translate(1120,374)"/>
<path d="M0 0 C0.855 0.126 1.709 0.253 2.59 0.383 C3.365 0.525 4.139 0.666 4.938 0.812 C5.969 0.998 7 1.184 8.062 1.375 C8.681 1.519 9.3 1.664 9.938 1.812 C9.938 2.142 9.938 2.473 9.938 2.812 C9.421 2.941 9.421 2.941 6.809 3.594 C3.142 4.646 0.223 6.246 -3 8.312 C-4.152 9.044 -5.305 9.776 -6.457 10.508 C-7.052 10.89 -7.647 11.272 -8.26 11.665 C-10 12.773 -11.752 13.855 -13.512 14.93 C-22.277 20.3 -30.836 25.966 -39.375 31.688 C-50.16 38.912 -61.028 45.974 -72.062 52.812 C-72.899 53.331 -73.736 53.85 -74.599 54.384 C-78.134 56.574 -81.671 58.761 -85.208 60.947 C-110.12 76.349 -110.12 76.349 -121.91 84.484 C-124.062 85.812 -124.062 85.812 -126.062 85.812 C-126.393 86.472 -126.722 87.132 -127.062 87.812 C-138.178 85.826 -147.808 82.741 -154.945 73.527 C-158.033 68.788 -159.085 63.384 -158.062 57.812 C-155.897 52.892 -152.804 48.459 -148.062 45.812 C-143.088 45.181 -141.072 45.28 -136.625 47.625 C-134.062 49.812 -134.062 49.812 -133.062 52.812 C-138.013 55.783 -142.962 58.752 -148.062 61.812 C-147.475 71.652 -147.475 71.652 -143.062 75.812 C-139.557 78.351 -136.29 78.089 -132.062 77.812 C-129.435 76.813 -127.147 75.806 -124.688 74.5 C-124.342 74.322 -124.342 74.322 -122.593 73.419 C-116.014 69.942 -109.824 65.922 -103.629 61.812 C-98.59 58.476 -93.457 55.296 -88.312 52.125 C-87.412 51.569 -86.512 51.014 -85.584 50.441 C-81.895 48.167 -78.203 45.897 -74.508 43.633 C-65.804 38.296 -57.173 32.847 -48.547 27.386 C-44.491 24.818 -40.433 22.252 -36.375 19.688 C-35.593 19.193 -34.812 18.699 -34.007 18.19 C-28.122 14.474 -22.224 10.78 -16.312 7.109 C-15.707 6.733 -15.103 6.356 -14.48 5.969 C-13.903 5.612 -13.326 5.255 -12.732 4.887 C-11.088 3.829 -9.507 2.674 -7.93 1.52 C-4.77 -0.362 -3.561 -0.57 0 0 Z " fill="#ACACAB" transform="translate(860.0625,294.1875)"/>
<path d="M0 0 C4 0.26 7.17 1.534 10.746 3.215 C11.382 3.501 12.018 3.787 12.674 4.082 C14.224 4.781 15.767 5.496 17.309 6.215 C17.309 6.875 17.309 7.535 17.309 8.215 C16.233 8.264 15.157 8.313 14.048 8.363 C3.476 8.878 -7.011 9.765 -17.528 10.944 C-19.982 11.219 -22.436 11.487 -24.891 11.754 C-26.475 11.928 -28.06 12.102 -29.645 12.277 C-30.366 12.357 -31.088 12.436 -31.832 12.517 C-34.82 12.854 -37.783 13.23 -40.747 13.735 C-44.113 14.284 -47.45 14.568 -50.852 14.828 C-52.281 14.941 -53.711 15.053 -55.14 15.166 C-55.891 15.225 -56.642 15.283 -57.415 15.344 C-71.325 16.435 -85.199 17.74 -99.066 19.277 C-102.141 19.617 -105.215 19.957 -108.289 20.297 C-108.652 20.337 -108.652 20.337 -110.491 20.54 C-116.824 21.237 -123.16 21.878 -129.504 22.465 C-130.344 22.545 -131.185 22.625 -132.05 22.707 C-136.951 23.147 -141.771 23.282 -146.691 23.215 C-146.718 21.402 -146.738 19.59 -146.754 17.777 C-146.766 16.768 -146.777 15.759 -146.789 14.719 C-146.691 12.215 -146.691 12.215 -145.691 11.215 C-143.468 11.008 -141.238 10.866 -139.008 10.75 C-138.319 10.712 -137.631 10.674 -136.922 10.634 C-133.979 10.471 -131.036 10.318 -128.094 10.165 C-120.234 9.752 -112.422 9.24 -104.605 8.309 C-96.22 7.315 -87.816 6.619 -79.398 5.961 C-78.717 5.908 -78.035 5.854 -77.333 5.799 C-73.109 5.469 -68.884 5.143 -64.659 4.818 C-58.953 4.379 -53.247 3.938 -47.542 3.493 C-45.571 3.34 -43.6 3.189 -41.628 3.039 C-35.942 2.597 -30.328 2.074 -24.691 1.215 C-23.016 1.083 -21.339 0.975 -19.66 0.898 C-19.213 0.877 -19.213 0.877 -16.953 0.771 C-16.042 0.732 -15.13 0.693 -14.191 0.652 C-13.28 0.609 -12.369 0.566 -11.43 0.521 C-9.652 0.441 -7.874 0.368 -6.096 0.304 C-4.063 0.229 -2.031 0.118 0 0 Z " fill="#F1F2F1" transform="translate(804.69140625,210.78515625)"/>
<path d="M0 0 C-0.369 11.405 -0.742 22.81 -1.122 34.214 C-1.298 39.51 -1.472 44.805 -1.643 50.101 C-1.808 55.21 -1.977 60.319 -2.149 65.428 C-2.213 67.379 -2.277 69.329 -2.339 71.28 C-2.425 74.009 -2.518 76.739 -2.611 79.468 C-2.636 80.276 -2.66 81.085 -2.685 81.918 C-2.811 85.431 -3.129 88.607 -4 92 C-4.205 94.302 -4.365 96.607 -4.5 98.914 C-4.54 99.594 -4.581 100.273 -4.622 100.973 C-4.752 103.19 -4.876 105.408 -5 107.625 C-5.088 109.152 -5.175 110.679 -5.263 112.207 C-6.014 125.465 -6.568 138.728 -7 152 C-14.75 151.125 -14.75 151.125 -17 150 C-17.112 142.708 -16.944 135.5 -16.422 128.226 C-16.027 122.334 -15.869 116.446 -15.725 110.542 C-15.333 94.905 -14.411 79.358 -13.144 63.768 C-12.431 54.854 -11.891 45.976 -11.676 37.035 C-11.623 35.249 -11.569 33.464 -11.515 31.678 C-11.438 29.118 -11.375 26.562 -11.362 24.001 C-11.287 9.325 -11.287 9.325 -5.477 3.406 C-1.397 0 -1.397 0 0 0 Z " fill="#9B9B9B" transform="translate(1214,428)"/>
<path d="M0 0 C2.645 0.902 2.645 0.902 3.645 2.902 C4.07 5.746 4.07 5.746 3.645 8.902 C1.699 10.755 0.072 11.998 -2.168 13.402 C-3.456 14.265 -4.742 15.129 -6.027 15.996 C-6.724 16.459 -7.421 16.922 -8.139 17.398 C-12.148 20.119 -16.026 23.018 -19.918 25.902 C-20.73 26.501 -21.542 27.1 -22.378 27.718 C-28.087 31.936 -33.729 36.232 -39.344 40.574 C-42.547 43.05 -45.756 45.517 -48.98 47.965 C-49.461 48.332 -49.461 48.332 -51.895 50.188 C-54.355 51.902 -54.355 51.902 -57.355 52.902 C-58.015 51.252 -58.675 49.602 -59.355 47.902 C-60.675 49.222 -61.995 50.542 -63.355 51.902 C-62.035 52.232 -60.715 52.562 -59.355 52.902 C-59.355 53.892 -59.355 54.882 -59.355 55.902 C-60.6 56.437 -61.851 56.954 -63.105 57.465 C-63.802 57.755 -64.498 58.045 -65.215 58.344 C-67.656 58.981 -68.996 58.705 -71.355 57.902 C-72.226 55.488 -72.564 54.371 -71.5 51.98 C-71.06 51.377 -70.621 50.774 -70.168 50.152 C-69.955 49.846 -69.955 49.846 -68.875 48.293 C-67.355 46.902 -67.355 46.902 -63.355 46.902 C-63.52 46.407 -63.52 46.407 -64.355 43.902 C-62.527 42.582 -60.698 41.261 -58.869 39.94 C-57.258 38.776 -55.646 37.612 -54.035 36.448 C-49.87 33.44 -45.705 30.433 -41.539 27.426 C-39.999 26.314 -38.458 25.202 -36.918 24.09 C-36.54 23.817 -36.54 23.817 -34.626 22.436 C-30.613 19.537 -26.606 16.631 -22.605 13.715 C-21.771 13.114 -20.937 12.513 -20.078 11.895 C-17.957 10.343 -15.871 8.763 -13.789 7.16 C-12.541 6.22 -11.292 5.28 -10.043 4.34 C-9.468 3.885 -8.892 3.431 -8.3 2.962 C-5.334 0.757 -3.743 -0.109 0 0 Z " fill="#A8A8A8" transform="translate(1104.35546875,386.09765625)"/>
<path d="M0 0 C3 2 3 2 3.52 4.316 C2.786 8.105 0.59 9.662 -2.312 11.938 C-2.884 12.403 -3.455 12.868 -4.043 13.347 C-10.658 18.665 -17.541 23.64 -24.402 28.633 C-28.341 31.503 -32.217 34.444 -36.062 37.438 C-40.387 40.788 -44.769 43.995 -49.281 47.086 C-51.399 48.577 -53.469 50.099 -55.531 51.664 C-63.024 57.332 -70.326 62.244 -79 66 C-79.762 66.338 -80.524 66.675 -81.309 67.023 C-85.324 68.678 -88.667 69.325 -93 69 C-93.165 68.175 -93.165 68.175 -94 64 C-92.877 63.636 -91.754 63.273 -90.598 62.898 C-82.269 60.133 -74.996 57.411 -68 52 C-66.336 50.788 -64.671 49.577 -63.005 48.368 C-60.379 46.457 -57.768 44.525 -55.157 42.593 C-52.898 40.924 -50.635 39.26 -48.371 37.598 C-38.202 30.125 -28.068 22.608 -18 15 C-17.692 14.768 -17.692 14.768 -16.13 13.592 C-14.354 12.253 -12.583 10.909 -10.812 9.562 C-9.808 8.801 -8.804 8.039 -7.77 7.254 C-4.988 4.99 -2.489 2.58 0 0 Z " fill="#AAAAAA" transform="translate(1123,386)"/>
<path d="M0 0 C0.688 0.257 1.377 0.513 2.086 0.777 C-2.052 5.203 -6.637 8.671 -11.539 12.215 C-13.247 13.462 -14.956 14.71 -16.664 15.957 C-17.535 16.591 -18.407 17.225 -19.305 17.878 C-22.601 20.277 -25.89 22.686 -29.175 25.102 C-30.747 26.258 -32.322 27.411 -33.898 28.562 C-37.891 31.492 -41.818 34.476 -45.676 37.582 C-46.441 38.192 -47.207 38.801 -47.996 39.429 C-49.446 40.59 -50.884 41.764 -52.309 42.955 C-57.148 46.811 -57.148 46.811 -61.395 46.625 C-62.226 46.345 -63.057 46.066 -63.914 45.777 C-63.914 45.117 -63.914 44.457 -63.914 43.777 C-62.547 42.563 -62.547 42.563 -60.609 41.195 C-59.89 40.682 -59.17 40.168 -58.428 39.639 C-57.64 39.087 -56.851 38.534 -56.039 37.965 C-54.384 36.788 -52.729 35.611 -51.074 34.434 C-50.22 33.829 -49.365 33.224 -48.485 32.602 C-44.464 29.748 -40.471 26.856 -36.477 23.965 C-34.973 22.879 -33.469 21.793 -31.965 20.707 C-28.692 18.342 -25.426 15.969 -22.164 13.59 C-21.331 12.989 -20.499 12.388 -19.641 11.77 C-17.511 10.214 -15.409 8.634 -13.312 7.035 C-12.055 6.095 -10.797 5.155 -9.539 4.215 C-8.955 3.76 -8.372 3.306 -7.771 2.837 C-4.992 0.783 -3.515 -0.269 0 0 Z " fill="#ECECEC" transform="translate(1103.9140625,386.22265625)"/>
<path d="M0 0 C0.33 0.165 0.33 0.165 2 1 C-2.761 5.307 -7.811 9.072 -13.048 12.77 C-18.164 16.387 -23.214 20.086 -28.25 23.812 C-34.808 28.66 -41.388 33.475 -48 38.25 C-48.76 38.799 -49.519 39.348 -50.302 39.913 C-58.524 45.841 -58.524 45.841 -62 47 C-62.33 47.66 -62.66 48.32 -63 49 C-61.68 49.33 -60.36 49.66 -59 50 C-59 50.99 -59 51.98 -59 53 C-60.244 53.535 -61.496 54.052 -62.75 54.562 C-63.446 54.853 -64.142 55.143 -64.859 55.441 C-67.3 56.078 -68.64 55.802 -71 55 C-71.806 52.69 -72.163 51.452 -71.32 49.113 C-70.926 48.519 -70.531 47.925 -70.125 47.312 C-69.756 46.711 -69.388 46.109 -69.008 45.488 C-66.66 43.748 -65.693 43.82 -62.832 43.684 C-57.043 43.222 -53.868 40.425 -49.562 36.75 C-47.981 35.461 -46.398 34.174 -44.812 32.891 C-44.013 32.238 -43.214 31.585 -42.391 30.912 C-38.712 27.97 -34.899 25.231 -31.062 22.5 C-29.583 21.442 -28.104 20.383 -26.625 19.324 C-25.879 18.79 -25.132 18.255 -24.363 17.705 C-19.244 14.012 -14.177 10.248 -9.104 6.492 C-8.349 5.934 -7.594 5.376 -6.816 4.801 C-6.151 4.307 -5.485 3.814 -4.799 3.306 C-3.227 2.165 -1.616 1.078 0 0 Z " fill="#262727" transform="translate(1104,389)"/>
<path d="M0 0 C2.97 0.99 5.94 1.98 9 3 C9.33 10.59 9.66 18.18 10 26 C6.7 25.01 3.4 24.02 0 23 C0 15.41 0 7.82 0 0 Z " fill="#949493" transform="translate(786,467)"/>
<path d="M0 0 C0.531 0.236 1.062 0.472 1.609 0.715 C1.967 5.742 2.068 9.651 0.047 14.34 C-2.391 16.715 -2.391 16.715 -5.891 17.402 C-9.391 16.715 -9.391 16.715 -11.766 14.527 C-13.351 11.783 -13.863 9.794 -14.391 6.715 C-12.483 5.512 -10.564 4.328 -8.641 3.152 C-7.573 2.491 -6.506 1.83 -5.406 1.148 C-2.391 -0.285 -2.391 -0.285 0 0 Z " fill="#B6B6B6" transform="translate(729.390625,351.28515625)"/>
<path d="M0 0 C3.438 1.5 3.438 1.5 6 3 C3.156 5.937 0.189 8.568 -3 11.125 C-3.846 11.808 -4.691 12.491 -5.562 13.195 C-7.665 14.752 -9.623 15.933 -12 17 C-14.11 13.572 -14.559 10.992 -14 7 C-10.221 0.945 -7.031 -0.469 0 0 Z " fill="#A6A6A6" transform="translate(977,408)"/>
<path d="M0 0 C1.65 0.33 3.3 0.66 5 1 C4.67 2.32 4.34 3.64 4 5 C5.32 5.33 6.64 5.66 8 6 C8 6.99 8 7.98 8 9 C6.756 9.535 5.504 10.052 4.25 10.562 C3.554 10.853 2.858 11.143 2.141 11.441 C-0.3 12.078 -1.64 11.802 -4 11 C-4.652 9.234 -4.652 9.234 -5 7 C-4.004 5.078 -4.004 5.078 -2.562 3.25 C-2.089 2.636 -1.616 2.023 -1.129 1.391 C-0.756 0.932 -0.384 0.473 0 0 Z " fill="#D2D2D1" transform="translate(1037,433)"/>
<path d="M0 0 C1.875 1.188 1.875 1.188 3 3 C2.853 5.934 2.392 7.506 0.562 9.812 C-1 11 -1 11 -3 11 C-3.268 10.216 -3.536 9.433 -3.812 8.625 C-5 6 -5 6 -8 4 C-8 3.34 -8 2.68 -8 2 C-4.767 -0.155 -3.748 -0.469 0 0 Z " fill="#D0D0D0" transform="translate(1118,377)"/>
</svg>
