<svg xmlns="http://www.w3.org/2000/svg" viewBox="0 0 1280 720" width="1280" height="720">
  <!-- ЧИСТЫЙ ЛИСТ.
       Рифма к автомату и его опровержение: там бумажка скручена и одна из
       сотни, здесь та же бумажка РАЗВЁРНУТА, лежит на столе — и на ней ничего
       не написано. Рядом карандаш. Больше ничего: ни полок, ни автомата.
       Окно с одним жёстким лучом на стол. Пол на y≈604; персонаж стоит слева
       от стола, лицом к листу. -->
  <rect width="1280" height="720" fill="#d4d7cf"/>
  <rect width="1280" height="130" fill="#5f625b"/>
  <rect y="130" width="1280" height="474" fill="#c9ccc3"/>
  <rect y="604" width="1280" height="116" fill="#a2a59d"/>
  <path d="M-10 604 Q640 598 1290 606" stroke="#141410" stroke-width="6" fill="none"/>
  <path d="M-10 130 Q640 136 1290 128" stroke="#141410" stroke-width="6" fill="none"/>

  <!-- ОКНО: один жёсткий луч дневного света на стол -->
  <path d="M880 170 L1140 170 L1140 420 L880 420 Z" fill="#d4d7cf" stroke="#141410" stroke-width="7"/>
  <path d="M1010 170 L1010 420 M880 295 L1140 295" stroke="#141410" stroke-width="6"/>
  <path d="M880 420 L560 604 L1140 604 L1140 420 Z" fill="#f2f4ec" opacity="0.35"/>

  <!-- СТОЛ: простая столешница на двух ножках -->
  <path d="M520 470 L1000 470 L1006 494 L514 494 Z" fill="#141410"/>
  <path d="M560 494 L552 604 M966 494 L974 604" stroke="#141410" stroke-width="12"/>

  <!-- ЛИСТ: та же бумажка, развёрнута; края ещё помнят скрутку -->
  <path d="M580 400 Q600 386 620 400 L850 396 Q866 384 880 400 L884 470 L576 472 Z"
        fill="#f2f4ec" stroke="#141410" stroke-width="6"/>
  <path d="M580 400 Q560 380 592 372 Q608 380 600 400" fill="#f2f4ec" stroke="#141410" stroke-width="5"/>
  <path d="M880 400 Q900 380 868 372 Q852 380 860 400" fill="#f2f4ec" stroke="#141410" stroke-width="5"/>
  <!-- КАРАНДАШ: лежит наискось, острие к листу -->
  <path d="M910 458 L1016 432 L1026 448 L922 474 Z" fill="#141410"/>
  <path d="M910 458 L890 470 L922 474 Z" fill="#c9ccc3" stroke="#141410" stroke-width="3"/>

  <!-- ПУСТОЙ ПОЛ: доски, ничего лишнего -->
  <g stroke="#8d9088" stroke-width="4" fill="none" opacity="0.7">
    <path d="M-10 660 L1290 660"/><path d="M-10 700 L1290 700"/>
    <path d="M320 604 L300 720"/><path d="M760 604 L770 720"/><path d="M1180 604 L1200 720"/>
  </g>
</svg>
