<svg xmlns="http://www.w3.org/2000/svg" viewBox="0 0 1280 720" width="1280" height="720">
  <defs>
    <radialGradient id="wallLight" cx="46%" cy="26%" r="80%">
      <stop offset="0%" stop-color="#aeb4ab"/>
      <stop offset="55%" stop-color="#878e85"/>
      <stop offset="100%" stop-color="#4a504a"/>
    </radialGradient>
    <linearGradient id="sideL" x1="0" y1="0" x2="1" y2="0">
      <stop offset="0%" stop-color="#3f453f"/>
      <stop offset="100%" stop-color="#6b716a"/>
    </linearGradient>
    <linearGradient id="sideR" x1="1" y1="0" x2="0" y2="0">
      <stop offset="0%" stop-color="#3f453f"/>
      <stop offset="100%" stop-color="#6b716a"/>
    </linearGradient>
    <linearGradient id="ceil" x1="0" y1="0" x2="0" y2="1">
      <stop offset="0%" stop-color="#31362f"/>
      <stop offset="100%" stop-color="#585e56"/>
    </linearGradient>
    <linearGradient id="floorG" x1="0" y1="0" x2="0" y2="1">
      <stop offset="0%" stop-color="#6f766d"/>
      <stop offset="100%" stop-color="#31362f"/>
    </linearGradient>
    <linearGradient id="beam" x1="0" y1="0" x2="1" y2="1">
      <stop offset="0%" stop-color="#e9ede4" stop-opacity="0.42"/>
      <stop offset="100%" stop-color="#e9ede4" stop-opacity="0"/>
    </linearGradient>
    <linearGradient id="metal" x1="0" y1="0" x2="1" y2="0">
      <stop offset="0%" stop-color="#565c58"/>
      <stop offset="50%" stop-color="#7c827c"/>
      <stop offset="100%" stop-color="#484e48"/>
    </linearGradient>
    <filter id="ink" x="-5%" y="-5%" width="110%" height="110%">
      <feTurbulence type="fractalNoise" baseFrequency="0.012" numOctaves="1" seed="11" result="n"/>
      <feDisplacementMap in="SourceGraphic" in2="n" scale="3.5" xChannelSelector="R" yChannelSelector="G"/>
    </filter>
    <filter id="grime">
      <feTurbulence type="fractalNoise" baseFrequency="0.9" numOctaves="2" seed="8" result="n"/>
      <feColorMatrix in="n" type="matrix" values="0 0 0 0 0  0 0 0 0 0  0 0 0 0 0  0.9 0 0 0 0"/>
      <feComposite operator="in" in2="SourceGraphic"/>
    </filter>
  </defs>

  <!-- room box: one-point perspective -->
  <rect x="300" y="90" width="680" height="430" fill="url(#wallLight)"/>          <!-- back wall -->
  <polygon points="0,0 1280,0 980,90 300,90" fill="url(#ceil)"/>                   <!-- ceiling -->
  <polygon points="0,0 300,90 300,520 0,720" fill="url(#sideL)"/>                  <!-- left wall -->
  <polygon points="1280,0 1280,720 980,520 980,90" fill="url(#sideR)"/>            <!-- right wall -->
  <polygon points="300,520 980,520 1280,720 0,720" fill="url(#floorG)"/>           <!-- floor -->

  <!-- concrete block courses on the back wall -->
  <g stroke="#6e756c" stroke-width="1.4" opacity="0.5" filter="url(#ink)">
    <line x1="300" y1="170" x2="980" y2="170"/>
    <line x1="300" y1="250" x2="980" y2="250"/>
    <line x1="300" y1="330" x2="980" y2="330"/>
    <line x1="300" y1="410" x2="980" y2="410"/>
    <line x1="440" y1="90" x2="440" y2="170"/><line x1="700" y1="90" x2="700" y2="170"/><line x1="900" y1="90" x2="900" y2="170"/>
    <line x1="370" y1="170" x2="370" y2="250"/><line x1="560" y1="170" x2="560" y2="250"/><line x1="820" y1="170" x2="820" y2="250"/>
    <line x1="470" y1="250" x2="470" y2="330"/><line x1="760" y1="250" x2="760" y2="330"/><line x1="930" y1="250" x2="930" y2="330"/>
    <line x1="390" y1="330" x2="390" y2="410"/><line x1="620" y1="330" x2="620" y2="410"/><line x1="860" y1="330" x2="860" y2="410"/>
  </g>
  <!-- wall stains / damp patches -->
  <g fill="#2e332d" opacity="0.35" filter="url(#ink)">
    <path d="M320 96 Q360 120 340 180 Q310 160 305 120 Z"/>
    <path d="M930 300 Q965 330 950 400 Q915 370 918 330 Z"/>
    <path d="M520 470 Q560 480 600 520 L480 520 Z"/>
  </g>
  <!-- left wall grime streaks -->
  <g stroke="#262b25" stroke-width="5" opacity="0.5">
    <path d="M60 140 Q70 300 40 520" fill="none"/>
    <path d="M170 200 Q180 350 160 560" fill="none"/>
    <path d="M1140 180 Q1130 340 1160 540" fill="none"/>
  </g>

  <!-- window: small, high, with protruding grid cage -->
  <g filter="url(#ink)">
    <rect x="586" y="128" width="128" height="104" fill="#181c19" stroke="#0e110f" stroke-width="6"/>
    <!-- inner depth -->
    <rect x="596" y="138" width="108" height="84" fill="#232823"/>
    <!-- protruding cage frame -->
    <rect x="574" y="116" width="152" height="128" fill="none" stroke="#3a403b" stroke-width="8"/>
    <g stroke="#121613" stroke-width="7">
      <line x1="600" y1="118" x2="600" y2="242"/>
      <line x1="626" y1="118" x2="626" y2="242"/>
      <line x1="652" y1="118" x2="652" y2="242"/>
      <line x1="678" y1="118" x2="678" y2="242"/>
      <line x1="704" y1="118" x2="704" y2="242"/>
      <line x1="576" y1="160" x2="724" y2="160"/>
      <line x1="576" y1="200" x2="724" y2="200"/>
    </g>
  </g>

  <!-- dramatic light beam from upper-left (like the reference) -->
  <polygon points="0,0 260,0 700,720 120,720" fill="url(#beam)"/>
  <polygon points="586,132 714,132 820,520 560,520" fill="url(#beam)" opacity="0.5"/>

  <!-- ================= LEFT metal double bunk (perspective) ================= -->
  <g filter="url(#ink)">
    <!-- shadow -->
    <polygon points="60,660 420,600 470,640 120,712" fill="#000000" opacity="0.35"/>
    <!-- posts: near pair tall, far pair shorter (perspective) -->
    <g stroke="#51574f" fill="none" stroke-linecap="round">
      <path d="M96 150 L96 668" stroke-width="13"/>
      <path d="M410 210 L410 600" stroke-width="9"/>
      <path d="M330 196 L330 300" stroke-width="8"/>
      <path d="M96 150 Q250 168 410 210" stroke-width="8"/>
    </g>
    <!-- upper tier: frame + rail bars + mattress -->
    <polygon points="70,344 428,336 428,362 70,372" fill="#3b413c" stroke="#171b18" stroke-width="3"/>
    <g stroke="#40463f" stroke-width="5">
      <line x1="110" y1="316" x2="110" y2="346"/><line x1="180" y1="314" x2="180" y2="344"/>
      <line x1="250" y1="312" x2="250" y2="342"/><line x1="320" y1="310" x2="320" y2="340"/><line x1="390" y1="308" x2="390" y2="338"/>
      <line x1="70" y1="316" x2="428" y2="308" stroke-width="6"/>
    </g>
    <polygon points="76,326 424,318 424,338 76,348" fill="#9aa196" stroke="#3a403a" stroke-width="3"/>
    <!-- folded blankets on the upper bunk -->
    <polygon points="90,306 210,300 214,322 92,328" fill="#d3d8cc" stroke="#3a403a" stroke-width="3"/>
    <polygon points="94,294 200,288 204,303 96,309" fill="#b9bfb1" stroke="#3a403a" stroke-width="2.4"/>
    <!-- lower tier -->
    <polygon points="70,522 428,498 428,524 70,552" fill="#3b413c" stroke="#171b18" stroke-width="3"/>
    <polygon points="76,504 424,480 424,500 76,530" fill="#9aa196" stroke="#3a403a" stroke-width="3"/>
    <!-- striped mattress lines -->
    <g stroke="#6e756b" stroke-width="3.4" opacity="0.8">
      <line x1="140" y1="502" x2="140" y2="522"/><line x1="220" y1="496" x2="220" y2="516"/>
      <line x1="300" y1="490" x2="300" y2="510"/><line x1="370" y1="486" x2="370" y2="506"/>
    </g>
    <!-- crumpled blanket on lower bunk -->
    <path d="M86 508 Q140 490 200 498 Q170 508 190 514 L90 518 Z" fill="#c6ccc1" stroke="#3a403a" stroke-width="2.6"/>
    <!-- under-frame diagonal braces -->
    <line x1="96" y1="572" x2="410" y2="546" stroke="#31362f" stroke-width="6"/>
  </g>

  <!-- ================= RIGHT metal double bunk (Freeman: lower tier) ================= -->
  <g filter="url(#ink)">
    <polygon points="860,600 1220,660 1160,712 810,640" fill="#000000" opacity="0.35"/>
    <g stroke="#51574f" fill="none" stroke-linecap="round">
      <path d="M1184 150 L1184 668" stroke-width="13"/>
      <path d="M870 210 L870 600" stroke-width="9"/>
      <path d="M950 196 L950 300" stroke-width="8"/>
      <path d="M1184 150 Q1030 168 870 210" stroke-width="8"/>
    </g>
    <!-- upper tier -->
    <polygon points="852,336 1210,344 1210,370 852,362" fill="#3b413c" stroke="#171b18" stroke-width="3"/>
    <g stroke="#40463f" stroke-width="5">
      <line x1="890" y1="310" x2="890" y2="340"/><line x1="960" y1="312" x2="960" y2="342"/>
      <line x1="1030" y1="314" x2="1030" y2="344"/><line x1="1100" y1="316" x2="1100" y2="346"/><line x1="1170" y1="318" x2="1170" y2="348"/>
      <line x1="852" y1="308" x2="1210" y2="316" stroke-width="6"/>
    </g>
    <polygon points="856,318 1204,326 1204,346 856,338" fill="#9aa196" stroke="#3a403a" stroke-width="3"/>
    <!-- pillow + messy blanket upstairs -->
    <polygon points="1080,306 1196,312 1200,332 1084,326" fill="#d3d8cc" stroke="#3a403a" stroke-width="3"/>
    <path d="M870 322 Q940 306 1010 316 Q980 326 1000 334 L874 336 Z" fill="#b9bfb1" stroke="#3a403a" stroke-width="2.6"/>
    <!-- lower tier (Freeman lies here) -->
    <polygon points="852,498 1210,522 1210,552 852,524" fill="#3b413c" stroke="#171b18" stroke-width="3"/>
    <polygon points="856,480 1204,504 1204,524 856,500" fill="#9aa196" stroke="#3a403a" stroke-width="3"/>
    <g stroke="#6e756b" stroke-width="3.4" opacity="0.8">
      <line x1="910" y1="486" x2="910" y2="504"/><line x1="990" y1="492" x2="990" y2="510"/>
      <line x1="1070" y1="497" x2="1070" y2="515"/><line x1="1150" y1="502" x2="1150" y2="520"/>
    </g>
    <!-- pillow at the room-side end -->
    <polygon points="860,474 948,480 952,500 864,494" fill="#c6ccc1" stroke="#3a403a" stroke-width="3"/>
    <line x1="1184" y1="572" x2="870" y2="544" stroke="#31362f" stroke-width="6"/>
  </g>

  <!-- ================= metal table (center) ================= -->
  <g filter="url(#ink)">
    <polygon points="540,640 760,640 810,690 490,690" fill="#000000" opacity="0.3"/>
    <!-- top -->
    <polygon points="530,470 750,470 786,502 494,502" fill="#565c58" stroke="#171b18" stroke-width="4"/>
    <polygon points="530,470 750,470 750,478 530,478" fill="#6e746e"/>
    <!-- legs + crossbar -->
    <line x1="516" y1="502" x2="508" y2="656" stroke="#31362f" stroke-width="11"/>
    <line x1="768" y1="502" x2="776" y2="656" stroke="#31362f" stroke-width="11"/>
    <line x1="512" y1="588" x2="772" y2="588" stroke="#31362f" stroke-width="8"/>
    <!-- book + plate on the table -->
    <polygon points="600,458 690,454 700,470 606,474" fill="#2c302b" stroke="#141713" stroke-width="2.4"/>
    <ellipse cx="560" cy="468" rx="26" ry="8" fill="#8b9188" stroke="#31362f" stroke-width="2.4"/>
  </g>

  <!-- graffiti scratched into the walls (детали!) -->
  <g filter="url(#ink)" fill="#666d64" font-family="DejaVu Sans" opacity="0.85">
    <text x="440" y="300" font-size="17" font-style="italic" transform="rotate(-4 440 300)">здесь сидел твой здравый смысл</text>
    <text x="330" y="452" font-size="15" transform="rotate(3 330 452)">ШВАБОДА!</text>
    <text x="700" y="384" font-size="13" font-style="italic" transform="rotate(-2 700 384)">начальник — не прав</text>
    <text x="470" y="128" font-size="12" transform="rotate(2 470 128)">выхода нет. вход — был</text>
  </g>
  <!-- crude sun with rays scratched near the window -->
  <g stroke="#5f665e" stroke-width="2" fill="none" opacity="0.8" filter="url(#ink)">
    <circle cx="790" cy="160" r="14"/>
    <path d="M790 138 v-8 M790 182 v8 M768 160 h-8 M812 160 h8 M776 146 l-6 -6 M804 146 l6 -6 M776 174 l-6 6 M804 174 l6 6"/>
  </g>

  <!-- tally marks near the right bunk -->
  <g stroke="#5f665e" stroke-width="2.2" opacity="0.9" filter="url(#ink)">
    <path d="M790 300 v26 M800 300 v26 M810 300 v26 M820 300 v26 M783 308 l44 13"/>
    <path d="M790 342 v26 M800 342 v26 M810 342 v26"/>
  </g>

  <!-- pipe running along the ceiling corner -->
  <path d="M300 92 Q640 74 980 92" fill="none" stroke="#262b25" stroke-width="10" filter="url(#ink)"/>
  <path d="M470 84 L470 128" stroke="#262b25" stroke-width="8"/>
</svg>
