<svg xmlns="http://www.w3.org/2000/svg" viewBox="0 0 66 200" width="66" height="200">
  <defs>
    <linearGradient id="sleeveL" x1="0" y1="0" x2="1" y2="0">
      <stop offset="0%" stop-color="#05050a"/>
      <stop offset="45%" stop-color="#2b2b34"/>
      <stop offset="100%" stop-color="#08080e"/>
    </linearGradient>
    <radialGradient id="handL" cx="40%" cy="30%" r="80%">
      <stop offset="0%" stop-color="#e7ded2"/>
      <stop offset="100%" stop-color="#c3b6a2"/>
    </radialGradient>
  </defs>
  <!-- Sleeve -->
  <path d="M14 10 Q34 3 54 10 L50 96 Q49 140 46 164 L20 164 Q17 140 16 96 Z"
        fill="url(#sleeveL)" stroke="#050508" stroke-width="1.5"/>
  <!-- soft sheen down the sleeve -->
  <path d="M38 20 Q40 90 39 160" fill="none" stroke="#43434d" stroke-width="1.2" opacity="0.5"/>
  <!-- White shirt cuff -->
  <path d="M20 161 L46 161 L45 168 L21 168 Z" fill="#efece3" stroke="#bcb5a4" stroke-width="0.8"/>
  <!-- Hand -->
  <path d="M24 166 Q18 181 27 189 Q39 192 43 179 Q44 170 38 166 Z"
        fill="url(#handL)" stroke="#5a4f40" stroke-width="1.1"/>
  <path d="M30 177 Q36 179 41 175" fill="none" stroke="#8a7c66" stroke-width="0.8" opacity="0.6"/>
</svg>
