<svg xmlns="http://www.w3.org/2000/svg" viewBox="0 0 58 210" width="58" height="210">
  <defs>
    <linearGradient id="trouserL" x1="0" y1="0" x2="1" y2="0">
      <stop offset="0%" stop-color="#08080e"/>
      <stop offset="50%" stop-color="#26262e"/>
      <stop offset="100%" stop-color="#08080e"/>
    </linearGradient>
    <linearGradient id="shoeL" x1="0" y1="0" x2="0" y2="1">
      <stop offset="0%" stop-color="#3a3a42"/>
      <stop offset="100%" stop-color="#050508"/>
    </linearGradient>
  </defs>
  <!-- Trouser -->
  <path d="M12 4 Q29 0 46 4 L42 150 Q41 162 39 170 L19 170 Q17 162 16 150 Z"
        fill="url(#trouserL)" stroke="#050508" stroke-width="1.4"/>
  <!-- crease highlight + inseam shadow -->
  <path d="M29 10 L27 168" stroke="#4c4c56" stroke-width="1.4" opacity="0.65"/>
  <path d="M20 12 L22 166" stroke="#000000" stroke-width="1" opacity="0.35"/>
  <!-- Glossy formal shoe (toe points outward, to the left) -->
  <path d="M19 166 Q6 188 6 197 Q22 204 40 199 Q46 190 41 180 Q37 170 31 168 Z"
        fill="url(#shoeL)" stroke="#050508" stroke-width="1.4"/>
  <ellipse cx="20" cy="182" rx="8" ry="4" fill="#e9e9ee" opacity="0.45"/>
  <path d="M8 197 Q24 202 40 198" fill="none" stroke="#000000" stroke-width="2" opacity="0.6"/>
</svg>
