<svg xmlns="http://www.w3.org/2000/svg" viewBox="0 0 58 210" width="58" height="210">
  <defs>
    <linearGradient id="trouserR" x1="0" y1="0" x2="1" y2="0">
      <stop offset="0%" stop-color="#08080e"/>
      <stop offset="50%" stop-color="#26262e"/>
      <stop offset="100%" stop-color="#08080e"/>
    </linearGradient>
    <linearGradient id="shoeR" x1="0" y1="0" x2="0" y2="1">
      <stop offset="0%" stop-color="#3a3a42"/>
      <stop offset="100%" stop-color="#050508"/>
    </linearGradient>
  </defs>
  <!-- Trouser -->
  <path d="M12 4 Q29 0 46 4 L42 150 Q41 162 39 170 L19 170 Q17 162 16 150 Z"
        fill="url(#trouserR)" stroke="#050508" stroke-width="1.4"/>
  <path d="M29 10 L31 168" stroke="#4c4c56" stroke-width="1.4" opacity="0.65"/>
  <path d="M38 12 L36 166" stroke="#000000" stroke-width="1" opacity="0.35"/>
  <!-- Glossy formal shoe (toe points outward, to the right) -->
  <path d="M39 166 Q52 188 52 197 Q36 204 18 199 Q12 190 17 180 Q21 170 27 168 Z"
        fill="url(#shoeR)" stroke="#050508" stroke-width="1.4"/>
  <ellipse cx="38" cy="182" rx="8" ry="4" fill="#e9e9ee" opacity="0.45"/>
  <path d="M18 197 Q34 202 50 198" fill="none" stroke="#000000" stroke-width="2" opacity="0.6"/>
</svg>
