<svg xmlns="http://www.w3.org/2000/svg" viewBox="0 0 56 124" width="56" height="124">
  <defs>
    <linearGradient id="shr" x1="0" y1="0" x2="1" y2="0"><stop offset="0%" stop-color="#08080e"/><stop offset="50%" stop-color="#26262e"/><stop offset="100%" stop-color="#08080e"/></linearGradient>
    <linearGradient id="shoer" x1="0" y1="0" x2="0" y2="1"><stop offset="0%" stop-color="#3a3a42"/><stop offset="100%" stop-color="#050508"/></linearGradient>
  </defs>
  <circle cx="29" cy="12" r="10.5" fill="#2a2a33"/>
  <path d="M16 8 Q29 3 42 8 L39 80 Q38 86 36 88 L22 88 Q20 86 19 80 Z" fill="url(#shr)" stroke="#050508" stroke-width="1.4"/>
  <path d="M28 14 L30 86" stroke="#4c4c56" stroke-width="1.3" opacity="0.6"/>
  <path d="M36 84 Q49 106 49 115 Q33 122 15 117 Q9 108 14 98 Q18 88 24 86 Z" fill="url(#shoer)" stroke="#050508" stroke-width="1.4"/>
  <ellipse cx="35" cy="100" rx="8" ry="4" fill="#e9e9ee" opacity="0.45"/>
  <path d="M15 116 Q31 120 47 115" fill="none" stroke="#000000" stroke-width="2" opacity="0.6"/>
</svg>
