<svg xmlns="http://www.w3.org/2000/svg" viewBox="0 0 1280 200" width="1280" height="200">
  <rect width="1280" height="200" fill="#8f938a"/>
  <path d="M571 114 Q669 124 766 131" stroke="#a5a99f" stroke-width="3.0" fill="none" stroke-linecap="round" opacity="0.85"/>
<path d="M186 105 Q305 104 473 112" stroke="#a5a99f" stroke-width="3.0" fill="none" stroke-linecap="round" opacity="0.85"/>
<path d="M51 160 Q129 173 150 164" stroke="#a5a99f" stroke-width="3.0" fill="none" stroke-linecap="round" opacity="0.85"/>
<path d="M862 124 Q908 110 952 118" stroke="#a5a99f" stroke-width="3.0" fill="none" stroke-linecap="round" opacity="0.85"/>
<path d="M194 55 Q286 54 385 36" stroke="#a5a99f" stroke-width="3.0" fill="none" stroke-linecap="round" opacity="0.85"/>
<path d="M668 128 Q793 123 923 128" stroke="#a5a99f" stroke-width="3.0" fill="none" stroke-linecap="round" opacity="0.85"/>
<path d="M1357 194 Q1474 197 1614 212" stroke="#a5a99f" stroke-width="3.0" fill="none" stroke-linecap="round" opacity="0.85"/>
<path d="M336 23 Q450 25 522 33" stroke="#a5a99f" stroke-width="3.0" fill="none" stroke-linecap="round" opacity="0.85"/>
<path d="M1300 167 Q1390 159 1431 153" stroke="#a5a99f" stroke-width="3.0" fill="none" stroke-linecap="round" opacity="0.85"/>
<path d="M1332 84 Q1465 68 1565 63" stroke="#a5a99f" stroke-width="3.0" fill="none" stroke-linecap="round" opacity="0.85"/>
<path d="M45 72 Q153 78 306 97" stroke="#a5a99f" stroke-width="3.0" fill="none" stroke-linecap="round" opacity="0.85"/>
<path d="M66 21 Q134 24 196 29" stroke="#a5a99f" stroke-width="3.0" fill="none" stroke-linecap="round" opacity="0.85"/>
<path d="M195 145 Q292 134 435 127" stroke="#a5a99f" stroke-width="3.0" fill="none" stroke-linecap="round" opacity="0.85"/>
<path d="M227 60 Q350 83 497 87" stroke="#a5a99f" stroke-width="3.0" fill="none" stroke-linecap="round" opacity="0.85"/>
<path d="M223 83 Q320 103 464 100" stroke="#a5a99f" stroke-width="3.0" fill="none" stroke-linecap="round" opacity="0.85"/>
<path d="M227 58 Q299 52 395 67" stroke="#a5a99f" stroke-width="3.0" fill="none" stroke-linecap="round" opacity="0.85"/>
<path d="M50 118 Q160 111 285 106" stroke="#a5a99f" stroke-width="3.0" fill="none" stroke-linecap="round" opacity="0.85"/>
<path d="M1301 99 Q1435 93 1607 104" stroke="#a5a99f" stroke-width="3.0" fill="none" stroke-linecap="round" opacity="0.85"/>
<path d="M1228 161 Q1310 168 1363 154" stroke="#a5a99f" stroke-width="3.0" fill="none" stroke-linecap="round" opacity="0.85"/>
<path d="M203 186 Q313 185 433 204" stroke="#a5a99f" stroke-width="3.0" fill="none" stroke-linecap="round" opacity="0.85"/>
<path d="M-24 188 Q91 189 236 174" stroke="#a5a99f" stroke-width="3.0" fill="none" stroke-linecap="round" opacity="0.85"/>
<path d="M779 64 Q884 49 1040 47" stroke="#a5a99f" stroke-width="3.0" fill="none" stroke-linecap="round" opacity="0.85"/>
<path d="M725 168 Q830 162 885 171" stroke="#a5a99f" stroke-width="3.0" fill="none" stroke-linecap="round" opacity="0.85"/>
<path d="M-56 60 Q-23 56 49 59" stroke="#a5a99f" stroke-width="3.0" fill="none" stroke-linecap="round" opacity="0.85"/>
<path d="M744 34 Q928 34 1055 26" stroke="#a5a99f" stroke-width="3.0" fill="none" stroke-linecap="round" opacity="0.85"/>
<path d="M915 118 Q934 124 1010 111" stroke="#a5a99f" stroke-width="3.0" fill="none" stroke-linecap="round" opacity="0.85"/>
<path d="M929 188 Q1044 182 1160 165" stroke="#a5a99f" stroke-width="3.0" fill="none" stroke-linecap="round" opacity="0.85"/>
<path d="M379 195 Q500 195 593 176" stroke="#a5a99f" stroke-width="3.0" fill="none" stroke-linecap="round" opacity="0.85"/>
<path d="M981 140 Q1128 154 1291 159" stroke="#a5a99f" stroke-width="3.0" fill="none" stroke-linecap="round" opacity="0.85"/>
<path d="M1217 171 Q1383 171 1504 166" stroke="#a5a99f" stroke-width="3.0" fill="none" stroke-linecap="round" opacity="0.85"/>
<path d="M820 81 Q916 86 1062 85" stroke="#a5a99f" stroke-width="3.0" fill="none" stroke-linecap="round" opacity="0.85"/>
<path d="M1350 173 Q1456 179 1534 181" stroke="#a5a99f" stroke-width="3.0" fill="none" stroke-linecap="round" opacity="0.85"/>
<path d="M554 165 Q657 156 817 142" stroke="#a5a99f" stroke-width="3.0" fill="none" stroke-linecap="round" opacity="0.85"/>
<path d="M613 53 Q725 67 824 61" stroke="#a5a99f" stroke-width="3.0" fill="none" stroke-linecap="round" opacity="0.85"/>
<path d="M288 12 Q399 -1 545 2" stroke="#a5a99f" stroke-width="3.0" fill="none" stroke-linecap="round" opacity="0.85"/>
<path d="M1224 132 Q1370 134 1537 128" stroke="#a5a99f" stroke-width="3.0" fill="none" stroke-linecap="round" opacity="0.85"/>
<path d="M206 90 Q383 97 515 109" stroke="#a5a99f" stroke-width="3.0" fill="none" stroke-linecap="round" opacity="0.85"/>
<path d="M760 69 Q882 69 965 53" stroke="#a5a99f" stroke-width="3.0" fill="none" stroke-linecap="round" opacity="0.85"/>
<path d="M944 186 Q1006 177 1074 180" stroke="#a5a99f" stroke-width="3.0" fill="none" stroke-linecap="round" opacity="0.85"/>
<path d="M228 87 Q323 97 441 92" stroke="#a5a99f" stroke-width="3.0" fill="none" stroke-linecap="round" opacity="0.85"/>
<path d="M1334 94 Q1403 79 1426 86" stroke="#7c8076" stroke-width="2.2" fill="none" stroke-linecap="round" opacity="0.85"/>
<path d="M940 116 Q1054 101 1225 105" stroke="#7c8076" stroke-width="2.2" fill="none" stroke-linecap="round" opacity="0.85"/>
<path d="M575 15 Q626 9 719 24" stroke="#7c8076" stroke-width="2.2" fill="none" stroke-linecap="round" opacity="0.85"/>
<path d="M826 93 Q971 107 1078 99" stroke="#7c8076" stroke-width="2.2" fill="none" stroke-linecap="round" opacity="0.85"/>
<path d="M906 47 Q944 46 1040 46" stroke="#7c8076" stroke-width="2.2" fill="none" stroke-linecap="round" opacity="0.85"/>
<path d="M948 43 Q1047 40 1122 35" stroke="#7c8076" stroke-width="2.2" fill="none" stroke-linecap="round" opacity="0.85"/>
<path d="M805 150 Q973 137 1092 144" stroke="#7c8076" stroke-width="2.2" fill="none" stroke-linecap="round" opacity="0.85"/>
<path d="M1263 144 Q1368 146 1457 129" stroke="#7c8076" stroke-width="2.2" fill="none" stroke-linecap="round" opacity="0.85"/>
<path d="M463 115 Q627 125 739 137" stroke="#7c8076" stroke-width="2.2" fill="none" stroke-linecap="round" opacity="0.85"/>
<path d="M858 48 Q1011 60 1148 61" stroke="#7c8076" stroke-width="2.2" fill="none" stroke-linecap="round" opacity="0.85"/>
<path d="M227 176 Q384 199 537 208" stroke="#7c8076" stroke-width="2.2" fill="none" stroke-linecap="round" opacity="0.85"/>
<path d="M381 178 Q441 183 551 191" stroke="#7c8076" stroke-width="2.2" fill="none" stroke-linecap="round" opacity="0.85"/>
<path d="M712 152 Q780 142 810 152" stroke="#7c8076" stroke-width="2.2" fill="none" stroke-linecap="round" opacity="0.85"/>
<path d="M1072 42 Q1192 29 1356 33" stroke="#7c8076" stroke-width="2.2" fill="none" stroke-linecap="round" opacity="0.85"/>
<path d="M664 144 Q817 152 916 161" stroke="#7c8076" stroke-width="2.2" fill="none" stroke-linecap="round" opacity="0.85"/>
<path d="M1287 26 Q1382 25 1503 14" stroke="#7c8076" stroke-width="2.2" fill="none" stroke-linecap="round" opacity="0.85"/>
<path d="M840 107 Q939 112 1061 122" stroke="#7c8076" stroke-width="2.2" fill="none" stroke-linecap="round" opacity="0.85"/>
<path d="M1137 177 Q1313 168 1432 159" stroke="#7c8076" stroke-width="2.2" fill="none" stroke-linecap="round" opacity="0.85"/>
<path d="M745 47 Q859 37 961 49" stroke="#7c8076" stroke-width="2.2" fill="none" stroke-linecap="round" opacity="0.85"/>
<path d="M1316 105 Q1464 102 1605 100" stroke="#7c8076" stroke-width="2.2" fill="none" stroke-linecap="round" opacity="0.85"/>
<path d="M915 22 Q1039 33 1108 24" stroke="#7c8076" stroke-width="2.2" fill="none" stroke-linecap="round" opacity="0.85"/>
<path d="M308 98 Q421 100 497 83" stroke="#7c8076" stroke-width="2.2" fill="none" stroke-linecap="round" opacity="0.85"/>
<path d="M606 69 Q750 52 843 54" stroke="#7c8076" stroke-width="2.2" fill="none" stroke-linecap="round" opacity="0.85"/>
<path d="M1042 14 Q1125 5 1185 5" stroke="#7c8076" stroke-width="2.2" fill="none" stroke-linecap="round" opacity="0.85"/>
<path d="M432 125 Q539 114 691 103" stroke="#7c8076" stroke-width="2.2" fill="none" stroke-linecap="round" opacity="0.85"/>
<path d="M281 47 Q373 45 480 48" stroke="#7c8076" stroke-width="2.2" fill="none" stroke-linecap="round" opacity="0.85"/>
<path d="M682 40 Q811 33 923 25" stroke="#7c8076" stroke-width="2.2" fill="none" stroke-linecap="round" opacity="0.85"/>
<path d="M1146 123 Q1231 136 1288 134" stroke="#7c8076" stroke-width="2.2" fill="none" stroke-linecap="round" opacity="0.85"/>
<path d="M1220 68 Q1362 74 1537 57" stroke="#7c8076" stroke-width="2.2" fill="none" stroke-linecap="round" opacity="0.85"/>
<path d="M1198 35 Q1317 18 1464 21" stroke="#7c8076" stroke-width="2.2" fill="none" stroke-linecap="round" opacity="0.85"/>
<path d="M1118 88 Q1172 96 1237 95" stroke="#7c8076" stroke-width="2.2" fill="none" stroke-linecap="round" opacity="0.85"/>
<path d="M-54 47 Q131 44 260 59" stroke="#7c8076" stroke-width="2.2" fill="none" stroke-linecap="round" opacity="0.85"/>
<path d="M648 150 Q760 140 910 150" stroke="#7c8076" stroke-width="2.2" fill="none" stroke-linecap="round" opacity="0.85"/>
<path d="M73 17 Q186 10 291 19" stroke="#7c8076" stroke-width="2.2" fill="none" stroke-linecap="round" opacity="0.85"/>
<path d="M186 48 Q374 49 511 70" stroke="#7c8076" stroke-width="2.2" fill="none" stroke-linecap="round" opacity="0.85"/>
<path d="M9 186 Q139 184 290 184" stroke="#7c8076" stroke-width="2.2" fill="none" stroke-linecap="round" opacity="0.85"/>
<path d="M662 90 Q721 99 755 91" stroke="#7c8076" stroke-width="2.2" fill="none" stroke-linecap="round" opacity="0.85"/>
<path d="M181 94 Q257 90 369 103" stroke="#7c8076" stroke-width="2.2" fill="none" stroke-linecap="round" opacity="0.85"/>
<path d="M658 13 Q808 33 934 35" stroke="#7c8076" stroke-width="2.2" fill="none" stroke-linecap="round" opacity="0.85"/>
<path d="M826 85 Q963 94 1042 89" stroke="#7c8076" stroke-width="2.2" fill="none" stroke-linecap="round" opacity="0.85"/>
<path d="M292 179 Q450 183 571 192" stroke="#7c8076" stroke-width="2.2" fill="none" stroke-linecap="round" opacity="0.85"/>
<path d="M1211 173 Q1366 176 1489 184" stroke="#7c8076" stroke-width="2.2" fill="none" stroke-linecap="round" opacity="0.85"/>
<path d="M961 23 Q1034 16 1166 17" stroke="#7c8076" stroke-width="2.2" fill="none" stroke-linecap="round" opacity="0.85"/>
<path d="M840 125 Q1009 113 1158 108" stroke="#7c8076" stroke-width="2.2" fill="none" stroke-linecap="round" opacity="0.85"/>
<path d="M870 115 Q994 119 1057 117" stroke="#7c8076" stroke-width="2.2" fill="none" stroke-linecap="round" opacity="0.85"/>
<path d="M930 151 Q981 161 1019 160" stroke="#7c8076" stroke-width="2.2" fill="none" stroke-linecap="round" opacity="0.85"/>
<path d="M290 84 Q347 69 420 72" stroke="#7c8076" stroke-width="2.2" fill="none" stroke-linecap="round" opacity="0.85"/>
<path d="M281 178 Q418 180 498 180" stroke="#7c8076" stroke-width="2.2" fill="none" stroke-linecap="round" opacity="0.85"/>
<path d="M1353 128 Q1412 138 1459 135" stroke="#7c8076" stroke-width="2.2" fill="none" stroke-linecap="round" opacity="0.85"/>
<path d="M-15 182 Q65 175 185 168" stroke="#7c8076" stroke-width="2.2" fill="none" stroke-linecap="round" opacity="0.85"/>
<path d="M800 21 Q893 32 983 38" stroke="#7c8076" stroke-width="2.2" fill="none" stroke-linecap="round" opacity="0.85"/>
<path d="M446 63 Q548 72 675 70" stroke="#7c8076" stroke-width="2.2" fill="none" stroke-linecap="round" opacity="0.85"/>
<path d="M346 13 Q375 16 445 7" stroke="#7c8076" stroke-width="2.2" fill="none" stroke-linecap="round" opacity="0.85"/>
<path d="M482 176 Q561 189 582 181" stroke="#7c8076" stroke-width="2.2" fill="none" stroke-linecap="round" opacity="0.85"/>
<path d="M26 178 Q159 170 235 175" stroke="#7c8076" stroke-width="2.2" fill="none" stroke-linecap="round" opacity="0.85"/>
<path d="M674 183 Q804 196 877 193" stroke="#b3b7ac" stroke-width="1.5" fill="none" stroke-linecap="round" opacity="0.85"/>
<path d="M789 31 Q873 23 992 36" stroke="#b3b7ac" stroke-width="1.5" fill="none" stroke-linecap="round" opacity="0.85"/>
<path d="M680 33 Q806 26 937 30" stroke="#b3b7ac" stroke-width="1.5" fill="none" stroke-linecap="round" opacity="0.85"/>
<path d="M758 88 Q897 105 976 100" stroke="#b3b7ac" stroke-width="1.5" fill="none" stroke-linecap="round" opacity="0.85"/>
<path d="M977 54 Q1144 45 1276 30" stroke="#b3b7ac" stroke-width="1.5" fill="none" stroke-linecap="round" opacity="0.85"/>
<path d="M437 60 Q557 68 666 69" stroke="#b3b7ac" stroke-width="1.5" fill="none" stroke-linecap="round" opacity="0.85"/>
<path d="M1005 45 Q1194 46 1333 28" stroke="#b3b7ac" stroke-width="1.5" fill="none" stroke-linecap="round" opacity="0.85"/>
<path d="M-23 21 Q81 7 170 12" stroke="#b3b7ac" stroke-width="1.5" fill="none" stroke-linecap="round" opacity="0.85"/>
<path d="M700 23 Q826 16 945 2" stroke="#b3b7ac" stroke-width="1.5" fill="none" stroke-linecap="round" opacity="0.85"/>
<path d="M457 99 Q558 102 629 88" stroke="#b3b7ac" stroke-width="1.5" fill="none" stroke-linecap="round" opacity="0.85"/>
<path d="M27 32 Q162 33 266 47" stroke="#b3b7ac" stroke-width="1.5" fill="none" stroke-linecap="round" opacity="0.85"/>
<path d="M531 58 Q629 75 708 69" stroke="#b3b7ac" stroke-width="1.5" fill="none" stroke-linecap="round" opacity="0.85"/>
<path d="M389 111 Q541 116 703 127" stroke="#b3b7ac" stroke-width="1.5" fill="none" stroke-linecap="round" opacity="0.85"/>
<path d="M60 172 Q116 167 164 163" stroke="#b3b7ac" stroke-width="1.5" fill="none" stroke-linecap="round" opacity="0.85"/>
<path d="M907 65 Q943 72 1013 71" stroke="#b3b7ac" stroke-width="1.5" fill="none" stroke-linecap="round" opacity="0.85"/>
<path d="M38 66 Q154 64 297 78" stroke="#b3b7ac" stroke-width="1.5" fill="none" stroke-linecap="round" opacity="0.85"/>
<path d="M435 144 Q507 144 554 141" stroke="#b3b7ac" stroke-width="1.5" fill="none" stroke-linecap="round" opacity="0.85"/>
<path d="M1243 184 Q1355 187 1431 200" stroke="#b3b7ac" stroke-width="1.5" fill="none" stroke-linecap="round" opacity="0.85"/>
<path d="M377 84 Q510 94 672 111" stroke="#b3b7ac" stroke-width="1.5" fill="none" stroke-linecap="round" opacity="0.85"/>
<path d="M446 77 Q521 77 633 73" stroke="#b3b7ac" stroke-width="1.5" fill="none" stroke-linecap="round" opacity="0.85"/>
<path d="M1068 110 Q1160 124 1290 125" stroke="#b3b7ac" stroke-width="1.5" fill="none" stroke-linecap="round" opacity="0.85"/>
<path d="M1188 62 Q1293 53 1392 42" stroke="#b3b7ac" stroke-width="1.5" fill="none" stroke-linecap="round" opacity="0.85"/>
<path d="M1312 130 Q1366 141 1415 137" stroke="#b3b7ac" stroke-width="1.5" fill="none" stroke-linecap="round" opacity="0.85"/>
<path d="M41 25 Q171 36 350 40" stroke="#b3b7ac" stroke-width="1.5" fill="none" stroke-linecap="round" opacity="0.85"/>
<path d="M127 148 Q186 157 277 152" stroke="#b3b7ac" stroke-width="1.5" fill="none" stroke-linecap="round" opacity="0.85"/>
<path d="M671 151 Q786 154 845 148" stroke="#b3b7ac" stroke-width="1.5" fill="none" stroke-linecap="round" opacity="0.85"/>
<path d="M631 109 Q787 113 894 121" stroke="#b3b7ac" stroke-width="1.5" fill="none" stroke-linecap="round" opacity="0.85"/>
<path d="M1110 133 Q1270 153 1390 154" stroke="#b3b7ac" stroke-width="1.5" fill="none" stroke-linecap="round" opacity="0.85"/>
<path d="M1299 128 Q1451 127 1567 130" stroke="#b3b7ac" stroke-width="1.5" fill="none" stroke-linecap="round" opacity="0.85"/>
<path d="M525 37 Q684 37 857 53" stroke="#b3b7ac" stroke-width="1.5" fill="none" stroke-linecap="round" opacity="0.85"/>
  <rect width="1280" height="5" fill="#161616"/>
</svg>