<svg xmlns="http://www.w3.org/2000/svg" viewBox="0 0 120 120" width="120" height="120">
  <g fill="#4a412f">
    <circle cx="60" cy="60" r="34"/>
    <g>
      <rect x="52" y="6" width="16" height="22" rx="4"/>
      <rect x="52" y="92" width="16" height="22" rx="4"/>
      <rect x="6" y="52" width="22" height="16" rx="4"/>
      <rect x="92" y="52" width="22" height="16" rx="4"/>
      <rect x="18" y="18" width="18" height="18" rx="4" transform="rotate(45 27 27)"/>
      <rect x="84" y="18" width="18" height="18" rx="4" transform="rotate(-45 93 27)"/>
      <rect x="18" y="84" width="18" height="18" rx="4" transform="rotate(-45 27 93)"/>
      <rect x="84" y="84" width="18" height="18" rx="4" transform="rotate(45 93 93)"/>
    </g>
  </g>
  <circle cx="60" cy="60" r="12" fill="#e9e2cd"/>
</svg>
